<?xml version="1.0" encoding="utf-8" standalone="no"?>
<!DOCTYPE svg PUBLIC "-//W3C//DTD SVG 1.1//EN"
  "http://www.w3.org/Graphics/SVG/1.1/DTD/svg11.dtd">
<!-- Created with matplotlib (https://matplotlib.org/) -->
<svg height="267.631875pt" version="1.1" viewBox="0 0 402.780937 267.631875" width="402.780937pt" xmlns="http://www.w3.org/2000/svg" xmlns:xlink="http://www.w3.org/1999/xlink">
 <defs>
  <style type="text/css">
*{stroke-linecap:butt;stroke-linejoin:round;}
  </style>
 </defs>
 <g id="figure_1">
  <g id="patch_1">
   <path d="M 0 267.631875 
L 402.780937 267.631875 
L 402.780937 0 
L 0 0 
z
" style="fill:#ffffff;"/>
  </g>
  <g id="axes_1">
   <g id="patch_2">
    <path d="M 57.280938 228.14 
L 392.080938 228.14 
L 392.080938 10.7 
L 57.280938 10.7 
z
" style="fill:#ffffff;"/>
   </g>
   <g id="matplotlib.axis_1">
    <g id="xtick_1">
     <g id="line2d_1">
      <defs>
       <path d="M 0 0 
L 0 3.5 
" id="mc01d85dd99" style="stroke:#000000;stroke-width:0.8;"/>
      </defs>
      <g>
       <use style="stroke:#000000;stroke-width:0.8;" x="72.499119" xlink:href="#mc01d85dd99" y="228.14"/>
      </g>
     </g>
     <g id="text_1">
      <!-- 0 -->
      <defs>
       <path d="M 31.78125 66.40625 
Q 24.171875 66.40625 20.328125 58.90625 
Q 16.5 51.421875 16.5 36.375 
Q 16.5 21.390625 20.328125 13.890625 
Q 24.171875 6.390625 31.78125 6.390625 
Q 39.453125 6.390625 43.28125 13.890625 
Q 47.125 21.390625 47.125 36.375 
Q 47.125 51.421875 43.28125 58.90625 
Q 39.453125 66.40625 31.78125 66.40625 
z
M 31.78125 74.21875 
Q 44.046875 74.21875 50.515625 64.515625 
Q 56.984375 54.828125 56.984375 36.375 
Q 56.984375 17.96875 50.515625 8.265625 
Q 44.046875 -1.421875 31.78125 -1.421875 
Q 19.53125 -1.421875 13.0625 8.265625 
Q 6.59375 17.96875 6.59375 36.375 
Q 6.59375 54.828125 13.0625 64.515625 
Q 19.53125 74.21875 31.78125 74.21875 
z
" id="DejaVuSans-48"/>
      </defs>
      <g transform="translate(69.317869 242.738437)scale(0.1 -0.1)">
       <use xlink:href="#DejaVuSans-48"/>
      </g>
     </g>
    </g>
    <g id="xtick_2">
     <g id="line2d_2">
      <g>
       <use style="stroke:#000000;stroke-width:0.8;" x="116.053763" xlink:href="#mc01d85dd99" y="228.14"/>
      </g>
     </g>
     <g id="text_2">
      <!-- 200 -->
      <defs>
       <path d="M 19.1875 8.296875 
L 53.609375 8.296875 
L 53.609375 0 
L 7.328125 0 
L 7.328125 8.296875 
Q 12.9375 14.109375 22.625 23.890625 
Q 32.328125 33.6875 34.8125 36.53125 
Q 39.546875 41.84375 41.421875 45.53125 
Q 43.3125 49.21875 43.3125 52.78125 
Q 43.3125 58.59375 39.234375 62.25 
Q 35.15625 65.921875 28.609375 65.921875 
Q 23.96875 65.921875 18.8125 64.3125 
Q 13.671875 62.703125 7.8125 59.421875 
L 7.8125 69.390625 
Q 13.765625 71.78125 18.9375 73 
Q 24.125 74.21875 28.421875 74.21875 
Q 39.75 74.21875 46.484375 68.546875 
Q 53.21875 62.890625 53.21875 53.421875 
Q 53.21875 48.921875 51.53125 44.890625 
Q 49.859375 40.875 45.40625 35.40625 
Q 44.1875 33.984375 37.640625 27.21875 
Q 31.109375 20.453125 19.1875 8.296875 
z
" id="DejaVuSans-50"/>
      </defs>
      <g transform="translate(106.510013 242.738437)scale(0.1 -0.1)">
       <use xlink:href="#DejaVuSans-50"/>
       <use x="63.623047" xlink:href="#DejaVuSans-48"/>
       <use x="127.246094" xlink:href="#DejaVuSans-48"/>
      </g>
     </g>
    </g>
    <g id="xtick_3">
     <g id="line2d_3">
      <g>
       <use style="stroke:#000000;stroke-width:0.8;" x="159.608407" xlink:href="#mc01d85dd99" y="228.14"/>
      </g>
     </g>
     <g id="text_3">
      <!-- 400 -->
      <defs>
       <path d="M 37.796875 64.3125 
L 12.890625 25.390625 
L 37.796875 25.390625 
z
M 35.203125 72.90625 
L 47.609375 72.90625 
L 47.609375 25.390625 
L 58.015625 25.390625 
L 58.015625 17.1875 
L 47.609375 17.1875 
L 47.609375 0 
L 37.796875 0 
L 37.796875 17.1875 
L 4.890625 17.1875 
L 4.890625 26.703125 
z
" id="DejaVuSans-52"/>
      </defs>
      <g transform="translate(150.064657 242.738437)scale(0.1 -0.1)">
       <use xlink:href="#DejaVuSans-52"/>
       <use x="63.623047" xlink:href="#DejaVuSans-48"/>
       <use x="127.246094" xlink:href="#DejaVuSans-48"/>
      </g>
     </g>
    </g>
    <g id="xtick_4">
     <g id="line2d_4">
      <g>
       <use style="stroke:#000000;stroke-width:0.8;" x="203.16305" xlink:href="#mc01d85dd99" y="228.14"/>
      </g>
     </g>
     <g id="text_4">
      <!-- 600 -->
      <defs>
       <path d="M 33.015625 40.375 
Q 26.375 40.375 22.484375 35.828125 
Q 18.609375 31.296875 18.609375 23.390625 
Q 18.609375 15.53125 22.484375 10.953125 
Q 26.375 6.390625 33.015625 6.390625 
Q 39.65625 6.390625 43.53125 10.953125 
Q 47.40625 15.53125 47.40625 23.390625 
Q 47.40625 31.296875 43.53125 35.828125 
Q 39.65625 40.375 33.015625 40.375 
z
M 52.59375 71.296875 
L 52.59375 62.3125 
Q 48.875 64.0625 45.09375 64.984375 
Q 41.3125 65.921875 37.59375 65.921875 
Q 27.828125 65.921875 22.671875 59.328125 
Q 17.53125 52.734375 16.796875 39.40625 
Q 19.671875 43.65625 24.015625 45.921875 
Q 28.375 48.1875 33.59375 48.1875 
Q 44.578125 48.1875 50.953125 41.515625 
Q 57.328125 34.859375 57.328125 23.390625 
Q 57.328125 12.15625 50.6875 5.359375 
Q 44.046875 -1.421875 33.015625 -1.421875 
Q 20.359375 -1.421875 13.671875 8.265625 
Q 6.984375 17.96875 6.984375 36.375 
Q 6.984375 53.65625 15.1875 63.9375 
Q 23.390625 74.21875 37.203125 74.21875 
Q 40.921875 74.21875 44.703125 73.484375 
Q 48.484375 72.75 52.59375 71.296875 
z
" id="DejaVuSans-54"/>
      </defs>
      <g transform="translate(193.6193 242.738437)scale(0.1 -0.1)">
       <use xlink:href="#DejaVuSans-54"/>
       <use x="63.623047" xlink:href="#DejaVuSans-48"/>
       <use x="127.246094" xlink:href="#DejaVuSans-48"/>
      </g>
     </g>
    </g>
    <g id="xtick_5">
     <g id="line2d_5">
      <g>
       <use style="stroke:#000000;stroke-width:0.8;" x="246.717694" xlink:href="#mc01d85dd99" y="228.14"/>
      </g>
     </g>
     <g id="text_5">
      <!-- 800 -->
      <defs>
       <path d="M 31.78125 34.625 
Q 24.75 34.625 20.71875 30.859375 
Q 16.703125 27.09375 16.703125 20.515625 
Q 16.703125 13.921875 20.71875 10.15625 
Q 24.75 6.390625 31.78125 6.390625 
Q 38.8125 6.390625 42.859375 10.171875 
Q 46.921875 13.96875 46.921875 20.515625 
Q 46.921875 27.09375 42.890625 30.859375 
Q 38.875 34.625 31.78125 34.625 
z
M 21.921875 38.8125 
Q 15.578125 40.375 12.03125 44.71875 
Q 8.5 49.078125 8.5 55.328125 
Q 8.5 64.0625 14.71875 69.140625 
Q 20.953125 74.21875 31.78125 74.21875 
Q 42.671875 74.21875 48.875 69.140625 
Q 55.078125 64.0625 55.078125 55.328125 
Q 55.078125 49.078125 51.53125 44.71875 
Q 48 40.375 41.703125 38.8125 
Q 48.828125 37.15625 52.796875 32.3125 
Q 56.78125 27.484375 56.78125 20.515625 
Q 56.78125 9.90625 50.3125 4.234375 
Q 43.84375 -1.421875 31.78125 -1.421875 
Q 19.734375 -1.421875 13.25 4.234375 
Q 6.78125 9.90625 6.78125 20.515625 
Q 6.78125 27.484375 10.78125 32.3125 
Q 14.796875 37.15625 21.921875 38.8125 
z
M 18.3125 54.390625 
Q 18.3125 48.734375 21.84375 45.5625 
Q 25.390625 42.390625 31.78125 42.390625 
Q 38.140625 42.390625 41.71875 45.5625 
Q 45.3125 48.734375 45.3125 54.390625 
Q 45.3125 60.0625 41.71875 63.234375 
Q 38.140625 66.40625 31.78125 66.40625 
Q 25.390625 66.40625 21.84375 63.234375 
Q 18.3125 60.0625 18.3125 54.390625 
z
" id="DejaVuSans-56"/>
      </defs>
      <g transform="translate(237.173944 242.738437)scale(0.1 -0.1)">
       <use xlink:href="#DejaVuSans-56"/>
       <use x="63.623047" xlink:href="#DejaVuSans-48"/>
       <use x="127.246094" xlink:href="#DejaVuSans-48"/>
      </g>
     </g>
    </g>
    <g id="xtick_6">
     <g id="line2d_6">
      <g>
       <use style="stroke:#000000;stroke-width:0.8;" x="290.272338" xlink:href="#mc01d85dd99" y="228.14"/>
      </g>
     </g>
     <g id="text_6">
      <!-- 1000 -->
      <defs>
       <path d="M 12.40625 8.296875 
L 28.515625 8.296875 
L 28.515625 63.921875 
L 10.984375 60.40625 
L 10.984375 69.390625 
L 28.421875 72.90625 
L 38.28125 72.90625 
L 38.28125 8.296875 
L 54.390625 8.296875 
L 54.390625 0 
L 12.40625 0 
z
" id="DejaVuSans-49"/>
      </defs>
      <g transform="translate(277.547338 242.738437)scale(0.1 -0.1)">
       <use xlink:href="#DejaVuSans-49"/>
       <use x="63.623047" xlink:href="#DejaVuSans-48"/>
       <use x="127.246094" xlink:href="#DejaVuSans-48"/>
       <use x="190.869141" xlink:href="#DejaVuSans-48"/>
      </g>
     </g>
    </g>
    <g id="xtick_7">
     <g id="line2d_7">
      <g>
       <use style="stroke:#000000;stroke-width:0.8;" x="333.826982" xlink:href="#mc01d85dd99" y="228.14"/>
      </g>
     </g>
     <g id="text_7">
      <!-- 1200 -->
      <g transform="translate(321.101982 242.738437)scale(0.1 -0.1)">
       <use xlink:href="#DejaVuSans-49"/>
       <use x="63.623047" xlink:href="#DejaVuSans-50"/>
       <use x="127.246094" xlink:href="#DejaVuSans-48"/>
       <use x="190.869141" xlink:href="#DejaVuSans-48"/>
      </g>
     </g>
    </g>
    <g id="xtick_8">
     <g id="line2d_8">
      <g>
       <use style="stroke:#000000;stroke-width:0.8;" x="377.381625" xlink:href="#mc01d85dd99" y="228.14"/>
      </g>
     </g>
     <g id="text_8">
      <!-- 1400 -->
      <g transform="translate(364.656625 242.738437)scale(0.1 -0.1)">
       <use xlink:href="#DejaVuSans-49"/>
       <use x="63.623047" xlink:href="#DejaVuSans-52"/>
       <use x="127.246094" xlink:href="#DejaVuSans-48"/>
       <use x="190.869141" xlink:href="#DejaVuSans-48"/>
      </g>
     </g>
    </g>
    <g id="text_9">
     <!-- distance [m] -->
     <defs>
      <path d="M 45.40625 46.390625 
L 45.40625 75.984375 
L 54.390625 75.984375 
L 54.390625 0 
L 45.40625 0 
L 45.40625 8.203125 
Q 42.578125 3.328125 38.25 0.953125 
Q 33.9375 -1.421875 27.875 -1.421875 
Q 17.96875 -1.421875 11.734375 6.484375 
Q 5.515625 14.40625 5.515625 27.296875 
Q 5.515625 40.1875 11.734375 48.09375 
Q 17.96875 56 27.875 56 
Q 33.9375 56 38.25 53.625 
Q 42.578125 51.265625 45.40625 46.390625 
z
M 14.796875 27.296875 
Q 14.796875 17.390625 18.875 11.75 
Q 22.953125 6.109375 30.078125 6.109375 
Q 37.203125 6.109375 41.296875 11.75 
Q 45.40625 17.390625 45.40625 27.296875 
Q 45.40625 37.203125 41.296875 42.84375 
Q 37.203125 48.484375 30.078125 48.484375 
Q 22.953125 48.484375 18.875 42.84375 
Q 14.796875 37.203125 14.796875 27.296875 
z
" id="DejaVuSans-100"/>
      <path d="M 9.421875 54.6875 
L 18.40625 54.6875 
L 18.40625 0 
L 9.421875 0 
z
M 9.421875 75.984375 
L 18.40625 75.984375 
L 18.40625 64.59375 
L 9.421875 64.59375 
z
" id="DejaVuSans-105"/>
      <path d="M 44.28125 53.078125 
L 44.28125 44.578125 
Q 40.484375 46.53125 36.375 47.5 
Q 32.28125 48.484375 27.875 48.484375 
Q 21.1875 48.484375 17.84375 46.4375 
Q 14.5 44.390625 14.5 40.28125 
Q 14.5 37.15625 16.890625 35.375 
Q 19.28125 33.59375 26.515625 31.984375 
L 29.59375 31.296875 
Q 39.15625 29.25 43.1875 25.515625 
Q 47.21875 21.78125 47.21875 15.09375 
Q 47.21875 7.46875 41.1875 3.015625 
Q 35.15625 -1.421875 24.609375 -1.421875 
Q 20.21875 -1.421875 15.453125 -0.5625 
Q 10.6875 0.296875 5.421875 2 
L 5.421875 11.28125 
Q 10.40625 8.6875 15.234375 7.390625 
Q 20.0625 6.109375 24.8125 6.109375 
Q 31.15625 6.109375 34.5625 8.28125 
Q 37.984375 10.453125 37.984375 14.40625 
Q 37.984375 18.0625 35.515625 20.015625 
Q 33.0625 21.96875 24.703125 23.78125 
L 21.578125 24.515625 
Q 13.234375 26.265625 9.515625 29.90625 
Q 5.8125 33.546875 5.8125 39.890625 
Q 5.8125 47.609375 11.28125 51.796875 
Q 16.75 56 26.8125 56 
Q 31.78125 56 36.171875 55.265625 
Q 40.578125 54.546875 44.28125 53.078125 
z
" id="DejaVuSans-115"/>
      <path d="M 18.3125 70.21875 
L 18.3125 54.6875 
L 36.8125 54.6875 
L 36.8125 47.703125 
L 18.3125 47.703125 
L 18.3125 18.015625 
Q 18.3125 11.328125 20.140625 9.421875 
Q 21.96875 7.515625 27.59375 7.515625 
L 36.8125 7.515625 
L 36.8125 0 
L 27.59375 0 
Q 17.1875 0 13.234375 3.875 
Q 9.28125 7.765625 9.28125 18.015625 
L 9.28125 47.703125 
L 2.6875 47.703125 
L 2.6875 54.6875 
L 9.28125 54.6875 
L 9.28125 70.21875 
z
" id="DejaVuSans-116"/>
      <path d="M 34.28125 27.484375 
Q 23.390625 27.484375 19.1875 25 
Q 14.984375 22.515625 14.984375 16.5 
Q 14.984375 11.71875 18.140625 8.90625 
Q 21.296875 6.109375 26.703125 6.109375 
Q 34.1875 6.109375 38.703125 11.40625 
Q 43.21875 16.703125 43.21875 25.484375 
L 43.21875 27.484375 
z
M 52.203125 31.203125 
L 52.203125 0 
L 43.21875 0 
L 43.21875 8.296875 
Q 40.140625 3.328125 35.546875 0.953125 
Q 30.953125 -1.421875 24.3125 -1.421875 
Q 15.921875 -1.421875 10.953125 3.296875 
Q 6 8.015625 6 15.921875 
Q 6 25.140625 12.171875 29.828125 
Q 18.359375 34.515625 30.609375 34.515625 
L 43.21875 34.515625 
L 43.21875 35.40625 
Q 43.21875 41.609375 39.140625 45 
Q 35.0625 48.390625 27.6875 48.390625 
Q 23 48.390625 18.546875 47.265625 
Q 14.109375 46.140625 10.015625 43.890625 
L 10.015625 52.203125 
Q 14.9375 54.109375 19.578125 55.046875 
Q 24.21875 56 28.609375 56 
Q 40.484375 56 46.34375 49.84375 
Q 52.203125 43.703125 52.203125 31.203125 
z
" id="DejaVuSans-97"/>
      <path d="M 54.890625 33.015625 
L 54.890625 0 
L 45.90625 0 
L 45.90625 32.71875 
Q 45.90625 40.484375 42.875 44.328125 
Q 39.84375 48.1875 33.796875 48.1875 
Q 26.515625 48.1875 22.3125 43.546875 
Q 18.109375 38.921875 18.109375 30.90625 
L 18.109375 0 
L 9.078125 0 
L 9.078125 54.6875 
L 18.109375 54.6875 
L 18.109375 46.1875 
Q 21.34375 51.125 25.703125 53.5625 
Q 30.078125 56 35.796875 56 
Q 45.21875 56 50.046875 50.171875 
Q 54.890625 44.34375 54.890625 33.015625 
z
" id="DejaVuSans-110"/>
      <path d="M 48.78125 52.59375 
L 48.78125 44.1875 
Q 44.96875 46.296875 41.140625 47.34375 
Q 37.3125 48.390625 33.40625 48.390625 
Q 24.65625 48.390625 19.8125 42.84375 
Q 14.984375 37.3125 14.984375 27.296875 
Q 14.984375 17.28125 19.8125 11.734375 
Q 24.65625 6.203125 33.40625 6.203125 
Q 37.3125 6.203125 41.140625 7.25 
Q 44.96875 8.296875 48.78125 10.40625 
L 48.78125 2.09375 
Q 45.015625 0.34375 40.984375 -0.53125 
Q 36.96875 -1.421875 32.421875 -1.421875 
Q 20.0625 -1.421875 12.78125 6.34375 
Q 5.515625 14.109375 5.515625 27.296875 
Q 5.515625 40.671875 12.859375 48.328125 
Q 20.21875 56 33.015625 56 
Q 37.15625 56 41.109375 55.140625 
Q 45.0625 54.296875 48.78125 52.59375 
z
" id="DejaVuSans-99"/>
      <path d="M 56.203125 29.59375 
L 56.203125 25.203125 
L 14.890625 25.203125 
Q 15.484375 15.921875 20.484375 11.0625 
Q 25.484375 6.203125 34.421875 6.203125 
Q 39.59375 6.203125 44.453125 7.46875 
Q 49.3125 8.734375 54.109375 11.28125 
L 54.109375 2.78125 
Q 49.265625 0.734375 44.1875 -0.34375 
Q 39.109375 -1.421875 33.890625 -1.421875 
Q 20.796875 -1.421875 13.15625 6.1875 
Q 5.515625 13.8125 5.515625 26.8125 
Q 5.515625 40.234375 12.765625 48.109375 
Q 20.015625 56 32.328125 56 
Q 43.359375 56 49.78125 48.890625 
Q 56.203125 41.796875 56.203125 29.59375 
z
M 47.21875 32.234375 
Q 47.125 39.59375 43.09375 43.984375 
Q 39.0625 48.390625 32.421875 48.390625 
Q 24.90625 48.390625 20.390625 44.140625 
Q 15.875 39.890625 15.1875 32.171875 
z
" id="DejaVuSans-101"/>
      <path id="DejaVuSans-32"/>
      <path d="M 8.59375 75.984375 
L 29.296875 75.984375 
L 29.296875 69 
L 17.578125 69 
L 17.578125 -6.203125 
L 29.296875 -6.203125 
L 29.296875 -13.1875 
L 8.59375 -13.1875 
z
" id="DejaVuSans-91"/>
      <path d="M 52 44.1875 
Q 55.375 50.25 60.0625 53.125 
Q 64.75 56 71.09375 56 
Q 79.640625 56 84.28125 50.015625 
Q 88.921875 44.046875 88.921875 33.015625 
L 88.921875 0 
L 79.890625 0 
L 79.890625 32.71875 
Q 79.890625 40.578125 77.09375 44.375 
Q 74.3125 48.1875 68.609375 48.1875 
Q 61.625 48.1875 57.5625 43.546875 
Q 53.515625 38.921875 53.515625 30.90625 
L 53.515625 0 
L 44.484375 0 
L 44.484375 32.71875 
Q 44.484375 40.625 41.703125 44.40625 
Q 38.921875 48.1875 33.109375 48.1875 
Q 26.21875 48.1875 22.15625 43.53125 
Q 18.109375 38.875 18.109375 30.90625 
L 18.109375 0 
L 9.078125 0 
L 9.078125 54.6875 
L 18.109375 54.6875 
L 18.109375 46.1875 
Q 21.1875 51.21875 25.484375 53.609375 
Q 29.78125 56 35.6875 56 
Q 41.65625 56 45.828125 52.96875 
Q 50 49.953125 52 44.1875 
z
" id="DejaVuSans-109"/>
      <path d="M 30.421875 75.984375 
L 30.421875 -13.1875 
L 9.71875 -13.1875 
L 9.71875 -6.203125 
L 21.390625 -6.203125 
L 21.390625 69 
L 9.71875 69 
L 9.71875 75.984375 
z
" id="DejaVuSans-93"/>
     </defs>
     <g transform="translate(186.82375 257.93625)scale(0.12 -0.12)">
      <use xlink:href="#DejaVuSans-100"/>
      <use x="63.476562" xlink:href="#DejaVuSans-105"/>
      <use x="91.259766" xlink:href="#DejaVuSans-115"/>
      <use x="143.359375" xlink:href="#DejaVuSans-116"/>
      <use x="182.568359" xlink:href="#DejaVuSans-97"/>
      <use x="243.847656" xlink:href="#DejaVuSans-110"/>
      <use x="307.226562" xlink:href="#DejaVuSans-99"/>
      <use x="362.207031" xlink:href="#DejaVuSans-101"/>
      <use x="423.730469" xlink:href="#DejaVuSans-32"/>
      <use x="455.517578" xlink:href="#DejaVuSans-91"/>
      <use x="494.53125" xlink:href="#DejaVuSans-109"/>
      <use x="591.943359" xlink:href="#DejaVuSans-93"/>
     </g>
    </g>
   </g>
   <g id="matplotlib.axis_2">
    <g id="ytick_1">
     <g id="line2d_9">
      <defs>
       <path d="M 0 0 
L -3.5 0 
" id="m306bf05478" style="stroke:#000000;stroke-width:0.8;"/>
      </defs>
      <g>
       <use style="stroke:#000000;stroke-width:0.8;" x="57.280938" xlink:href="#m306bf05478" y="206.594003"/>
      </g>
     </g>
     <g id="text_10">
      <!-- −420 -->
      <defs>
       <path d="M 10.59375 35.5 
L 73.1875 35.5 
L 73.1875 27.203125 
L 10.59375 27.203125 
z
" id="DejaVuSans-8722"/>
      </defs>
      <g transform="translate(22.81375 210.393222)scale(0.1 -0.1)">
       <use xlink:href="#DejaVuSans-8722"/>
       <use x="83.789062" xlink:href="#DejaVuSans-52"/>
       <use x="147.412109" xlink:href="#DejaVuSans-50"/>
       <use x="211.035156" xlink:href="#DejaVuSans-48"/>
      </g>
     </g>
    </g>
    <g id="ytick_2">
     <g id="line2d_10">
      <g>
       <use style="stroke:#000000;stroke-width:0.8;" x="57.280938" xlink:href="#m306bf05478" y="179.027887"/>
      </g>
     </g>
     <g id="text_11">
      <!-- −415 -->
      <defs>
       <path d="M 10.796875 72.90625 
L 49.515625 72.90625 
L 49.515625 64.59375 
L 19.828125 64.59375 
L 19.828125 46.734375 
Q 21.96875 47.46875 24.109375 47.828125 
Q 26.265625 48.1875 28.421875 48.1875 
Q 40.625 48.1875 47.75 41.5 
Q 54.890625 34.8125 54.890625 23.390625 
Q 54.890625 11.625 47.5625 5.09375 
Q 40.234375 -1.421875 26.90625 -1.421875 
Q 22.3125 -1.421875 17.546875 -0.640625 
Q 12.796875 0.140625 7.71875 1.703125 
L 7.71875 11.625 
Q 12.109375 9.234375 16.796875 8.0625 
Q 21.484375 6.890625 26.703125 6.890625 
Q 35.15625 6.890625 40.078125 11.328125 
Q 45.015625 15.765625 45.015625 23.390625 
Q 45.015625 31 40.078125 35.4375 
Q 35.15625 39.890625 26.703125 39.890625 
Q 22.75 39.890625 18.8125 39.015625 
Q 14.890625 38.140625 10.796875 36.28125 
z
" id="DejaVuSans-53"/>
      </defs>
      <g transform="translate(22.81375 182.827106)scale(0.1 -0.1)">
       <use xlink:href="#DejaVuSans-8722"/>
       <use x="83.789062" xlink:href="#DejaVuSans-52"/>
       <use x="147.412109" xlink:href="#DejaVuSans-49"/>
       <use x="211.035156" xlink:href="#DejaVuSans-53"/>
      </g>
     </g>
    </g>
    <g id="ytick_3">
     <g id="line2d_11">
      <g>
       <use style="stroke:#000000;stroke-width:0.8;" x="57.280938" xlink:href="#m306bf05478" y="151.461771"/>
      </g>
     </g>
     <g id="text_12">
      <!-- −410 -->
      <g transform="translate(22.81375 155.26099)scale(0.1 -0.1)">
       <use xlink:href="#DejaVuSans-8722"/>
       <use x="83.789062" xlink:href="#DejaVuSans-52"/>
       <use x="147.412109" xlink:href="#DejaVuSans-49"/>
       <use x="211.035156" xlink:href="#DejaVuSans-48"/>
      </g>
     </g>
    </g>
    <g id="ytick_4">
     <g id="line2d_12">
      <g>
       <use style="stroke:#000000;stroke-width:0.8;" x="57.280938" xlink:href="#m306bf05478" y="123.895655"/>
      </g>
     </g>
     <g id="text_13">
      <!-- −405 -->
      <g transform="translate(22.81375 127.694873)scale(0.1 -0.1)">
       <use xlink:href="#DejaVuSans-8722"/>
       <use x="83.789062" xlink:href="#DejaVuSans-52"/>
       <use x="147.412109" xlink:href="#DejaVuSans-48"/>
       <use x="211.035156" xlink:href="#DejaVuSans-53"/>
      </g>
     </g>
    </g>
    <g id="ytick_5">
     <g id="line2d_13">
      <g>
       <use style="stroke:#000000;stroke-width:0.8;" x="57.280938" xlink:href="#m306bf05478" y="96.329539"/>
      </g>
     </g>
     <g id="text_14">
      <!-- −400 -->
      <g transform="translate(22.81375 100.128757)scale(0.1 -0.1)">
       <use xlink:href="#DejaVuSans-8722"/>
       <use x="83.789062" xlink:href="#DejaVuSans-52"/>
       <use x="147.412109" xlink:href="#DejaVuSans-48"/>
       <use x="211.035156" xlink:href="#DejaVuSans-48"/>
      </g>
     </g>
    </g>
    <g id="ytick_6">
     <g id="line2d_14">
      <g>
       <use style="stroke:#000000;stroke-width:0.8;" x="57.280938" xlink:href="#m306bf05478" y="68.763422"/>
      </g>
     </g>
     <g id="text_15">
      <!-- −395 -->
      <defs>
       <path d="M 40.578125 39.3125 
Q 47.65625 37.796875 51.625 33 
Q 55.609375 28.21875 55.609375 21.1875 
Q 55.609375 10.40625 48.1875 4.484375 
Q 40.765625 -1.421875 27.09375 -1.421875 
Q 22.515625 -1.421875 17.65625 -0.515625 
Q 12.796875 0.390625 7.625 2.203125 
L 7.625 11.71875 
Q 11.71875 9.328125 16.59375 8.109375 
Q 21.484375 6.890625 26.8125 6.890625 
Q 36.078125 6.890625 40.9375 10.546875 
Q 45.796875 14.203125 45.796875 21.1875 
Q 45.796875 27.640625 41.28125 31.265625 
Q 36.765625 34.90625 28.71875 34.90625 
L 20.21875 34.90625 
L 20.21875 43.015625 
L 29.109375 43.015625 
Q 36.375 43.015625 40.234375 45.921875 
Q 44.09375 48.828125 44.09375 54.296875 
Q 44.09375 59.90625 40.109375 62.90625 
Q 36.140625 65.921875 28.71875 65.921875 
Q 24.65625 65.921875 20.015625 65.03125 
Q 15.375 64.15625 9.8125 62.3125 
L 9.8125 71.09375 
Q 15.4375 72.65625 20.34375 73.4375 
Q 25.25 74.21875 29.59375 74.21875 
Q 40.828125 74.21875 47.359375 69.109375 
Q 53.90625 64.015625 53.90625 55.328125 
Q 53.90625 49.265625 50.4375 45.09375 
Q 46.96875 40.921875 40.578125 39.3125 
z
" id="DejaVuSans-51"/>
       <path d="M 10.984375 1.515625 
L 10.984375 10.5 
Q 14.703125 8.734375 18.5 7.8125 
Q 22.3125 6.890625 25.984375 6.890625 
Q 35.75 6.890625 40.890625 13.453125 
Q 46.046875 20.015625 46.78125 33.40625 
Q 43.953125 29.203125 39.59375 26.953125 
Q 35.25 24.703125 29.984375 24.703125 
Q 19.046875 24.703125 12.671875 31.3125 
Q 6.296875 37.9375 6.296875 49.421875 
Q 6.296875 60.640625 12.9375 67.421875 
Q 19.578125 74.21875 30.609375 74.21875 
Q 43.265625 74.21875 49.921875 64.515625 
Q 56.59375 54.828125 56.59375 36.375 
Q 56.59375 19.140625 48.40625 8.859375 
Q 40.234375 -1.421875 26.421875 -1.421875 
Q 22.703125 -1.421875 18.890625 -0.6875 
Q 15.09375 0.046875 10.984375 1.515625 
z
M 30.609375 32.421875 
Q 37.25 32.421875 41.125 36.953125 
Q 45.015625 41.5 45.015625 49.421875 
Q 45.015625 57.28125 41.125 61.84375 
Q 37.25 66.40625 30.609375 66.40625 
Q 23.96875 66.40625 20.09375 61.84375 
Q 16.21875 57.28125 16.21875 49.421875 
Q 16.21875 41.5 20.09375 36.953125 
Q 23.96875 32.421875 30.609375 32.421875 
z
" id="DejaVuSans-57"/>
      </defs>
      <g transform="translate(22.81375 72.562641)scale(0.1 -0.1)">
       <use xlink:href="#DejaVuSans-8722"/>
       <use x="83.789062" xlink:href="#DejaVuSans-51"/>
       <use x="147.412109" xlink:href="#DejaVuSans-57"/>
       <use x="211.035156" xlink:href="#DejaVuSans-53"/>
      </g>
     </g>
    </g>
    <g id="ytick_7">
     <g id="line2d_15">
      <g>
       <use style="stroke:#000000;stroke-width:0.8;" x="57.280938" xlink:href="#m306bf05478" y="41.197306"/>
      </g>
     </g>
     <g id="text_16">
      <!-- −390 -->
      <g transform="translate(22.81375 44.996525)scale(0.1 -0.1)">
       <use xlink:href="#DejaVuSans-8722"/>
       <use x="83.789062" xlink:href="#DejaVuSans-51"/>
       <use x="147.412109" xlink:href="#DejaVuSans-57"/>
       <use x="211.035156" xlink:href="#DejaVuSans-48"/>
      </g>
     </g>
    </g>
    <g id="ytick_8">
     <g id="line2d_16">
      <g>
       <use style="stroke:#000000;stroke-width:0.8;" x="57.280938" xlink:href="#m306bf05478" y="13.63119"/>
      </g>
     </g>
     <g id="text_17">
      <!-- −385 -->
      <g transform="translate(22.81375 17.430409)scale(0.1 -0.1)">
       <use xlink:href="#DejaVuSans-8722"/>
       <use x="83.789062" xlink:href="#DejaVuSans-51"/>
       <use x="147.412109" xlink:href="#DejaVuSans-56"/>
       <use x="211.035156" xlink:href="#DejaVuSans-53"/>
      </g>
     </g>
    </g>
    <g id="text_18">
     <!-- elevation[m] -->
     <defs>
      <path d="M 9.421875 75.984375 
L 18.40625 75.984375 
L 18.40625 0 
L 9.421875 0 
z
" id="DejaVuSans-108"/>
      <path d="M 2.984375 54.6875 
L 12.5 54.6875 
L 29.59375 8.796875 
L 46.6875 54.6875 
L 56.203125 54.6875 
L 35.6875 0 
L 23.484375 0 
z
" id="DejaVuSans-118"/>
      <path d="M 30.609375 48.390625 
Q 23.390625 48.390625 19.1875 42.75 
Q 14.984375 37.109375 14.984375 27.296875 
Q 14.984375 17.484375 19.15625 11.84375 
Q 23.34375 6.203125 30.609375 6.203125 
Q 37.796875 6.203125 41.984375 11.859375 
Q 46.1875 17.53125 46.1875 27.296875 
Q 46.1875 37.015625 41.984375 42.703125 
Q 37.796875 48.390625 30.609375 48.390625 
z
M 30.609375 56 
Q 42.328125 56 49.015625 48.375 
Q 55.71875 40.765625 55.71875 27.296875 
Q 55.71875 13.875 49.015625 6.21875 
Q 42.328125 -1.421875 30.609375 -1.421875 
Q 18.84375 -1.421875 12.171875 6.21875 
Q 5.515625 13.875 5.515625 27.296875 
Q 5.515625 40.765625 12.171875 48.375 
Q 18.84375 56 30.609375 56 
z
" id="DejaVuSans-111"/>
     </defs>
     <g transform="translate(16.318125 157.717812)rotate(-90)scale(0.12 -0.12)">
      <use xlink:href="#DejaVuSans-101"/>
      <use x="61.523438" xlink:href="#DejaVuSans-108"/>
      <use x="89.306641" xlink:href="#DejaVuSans-101"/>
      <use x="150.830078" xlink:href="#DejaVuSans-118"/>
      <use x="210.009766" xlink:href="#DejaVuSans-97"/>
      <use x="271.289062" xlink:href="#DejaVuSans-116"/>
      <use x="310.498047" xlink:href="#DejaVuSans-105"/>
      <use x="338.28125" xlink:href="#DejaVuSans-111"/>
      <use x="399.462891" xlink:href="#DejaVuSans-110"/>
      <use x="462.841797" xlink:href="#DejaVuSans-91"/>
      <use x="501.855469" xlink:href="#DejaVuSans-109"/>
      <use x="599.267578" xlink:href="#DejaVuSans-93"/>
     </g>
    </g>
   </g>
   <g id="line2d_17">
    <path clip-path="url(#p0188a3b5dc)" d="M 72.499119 20.583636 
L 72.956527 21.985991 
L 73.806 23.705126 
L 74.067376 24.691651 
L 74.13272 24.622568 
L 74.328752 25.330028 
L 74.655472 25.325329 
L 75.243568 27.22935 
L 75.308912 27.097537 
L 75.504944 27.599836 
L 75.962352 28.954563 
L 76.09304 29.573133 
L 76.289072 29.559029 
L 76.41976 29.773743 
L 76.615792 30.6627 
L 76.942512 31.789268 
L 77.073201 32.049134 
L 77.138545 31.886056 
L 77.269233 32.425465 
L 77.399921 31.623277 
L 77.465265 31.756142 
L 77.726641 31.928521 
L 77.857329 31.83021 
L 78.249393 32.885816 
L 78.445425 32.934858 
L 78.576113 33.838656 
L 78.641457 33.646724 
L 78.837489 34.058332 
L 79.098865 35.10724 
L 79.164209 35.859874 
L 79.229553 35.839998 
L 79.294897 35.682856 
L 79.360241 35.756329 
L 79.425585 35.746703 
L 79.556273 36.132498 
L 79.621617 36.104407 
L 79.882993 37.057045 
L 80.079025 37.727558 
L 80.209713 37.681916 
L 80.405745 36.663446 
L 80.536433 36.969922 
L 80.863153 39.666638 
L 80.928498 39.682644 
L 80.993842 39.817789 
L 81.059186 39.774597 
L 81.385906 39.610128 
L 81.581938 39.564917 
L 81.843314 39.417685 
L 81.908658 39.515257 
L 82.10469 39.072731 
L 82.170034 39.10071 
L 82.300722 39.113218 
L 82.43141 39.116324 
L 82.562098 39.19924 
L 82.823474 40.040315 
L 83.019506 39.774238 
L 83.150194 39.521415 
L 83.215538 39.638412 
L 83.346226 38.970998 
L 83.41157 39.047139 
L 83.542258 39.07204 
L 83.803634 39.288822 
L 83.934322 38.864863 
L 84.39173 36.970344 
L 84.587762 36.760997 
L 84.849139 36.919326 
L 84.979827 36.112106 
L 85.045171 36.619204 
L 85.110515 36.297 
L 85.175859 36.326538 
L 85.306547 35.770206 
L 85.567923 34.001079 
L 85.829299 32.834044 
L 85.959987 32.898351 
L 86.090675 32.91237 
L 86.221363 32.497518 
L 86.352051 32.0681 
L 86.417395 32.102928 
L 86.548083 31.855797 
L 86.744115 31.998434 
L 87.005491 31.369016 
L 87.266867 30.790532 
L 87.397555 30.82279 
L 87.789619 29.971755 
L 87.854963 30.00697 
L 88.312371 29.319738 
L 88.573747 28.786036 
L 88.639092 28.733822 
L 88.704436 28.846318 
L 88.76978 28.73965 
L 89.227188 27.375226 
L 89.488564 27.603916 
L 89.74994 27.502697 
L 89.945972 27.237428 
L 90.07666 27.287695 
L 90.534068 26.85266 
L 90.860788 26.350505 
L 91.05682 26.238776 
L 91.38354 26.172666 
L 91.448884 26.356309 
L 91.514228 26.319994 
L 91.71026 26.213738 
L 92.03698 26.155446 
L 92.167668 26.320644 
L 92.3637 26.312492 
L 92.494389 26.554511 
L 92.559733 26.503299 
L 92.821109 26.309198 
L 93.343861 26.945957 
L 93.735925 28.926118 
L 94.127989 28.9817 
L 94.324021 28.774956 
L 94.520053 28.345298 
L 94.716085 28.285745 
L 95.173493 29.142711 
L 95.304181 29.228449 
L 95.630901 29.938756 
L 95.892277 29.692996 
L 96.153653 30.307482 
L 96.349686 30.852535 
L 96.480374 30.817265 
L 96.937782 32.163536 
L 97.199158 33.040361 
L 97.264502 33.063418 
L 97.591222 34.083507 
L 98.506038 36.39825 
L 98.70207 36.925273 
L 99.02879 37.09778 
L 99.551542 38.227045 
L 99.616886 38.198025 
L 99.812918 38.081295 
L 99.878262 38.038117 
L 100.727735 39.24946 
L 101.119799 39.143808 
L 101.381175 39.507547 
L 101.577207 39.360933 
L 101.707895 39.528151 
L 101.773239 39.422089 
L 101.903927 39.201315 
L 101.969271 39.253687 
L 102.230647 39.298209 
L 102.361335 39.253497 
L 102.492023 39.04647 
L 102.557367 39.106911 
L 102.688055 39.240346 
L 102.818743 39.13291 
L 102.949431 39.070592 
L 103.145463 38.780346 
L 103.276151 38.868654 
L 103.472183 38.830539 
L 103.733559 39.103266 
L 103.929591 39.104772 
L 104.06028 39.187005 
L 104.190968 39.100638 
L 104.387 39.326512 
L 104.583032 39.209052 
L 104.71372 39.405745 
L 105.236472 40.232384 
L 105.497848 40.626522 
L 106.281976 42.519945 
L 106.543352 43.099916 
L 106.870072 43.738362 
L 107.32748 44.781642 
L 108.307641 46.681068 
L 108.503673 46.618604 
L 108.895737 47.136038 
L 109.353145 47.942021 
L 109.679865 49.151086 
L 109.875897 48.895229 
L 110.202617 48.98709 
L 110.398649 48.811131 
L 110.660025 49.125868 
L 110.921401 49.207357 
L 111.117433 49.299449 
L 111.770874 50.075048 
L 112.35897 51.970385 
L 112.489658 52.248575 
L 112.68569 53.389313 
L 113.01241 60.68943 
L 113.143098 61.458097 
L 113.208442 61.422586 
L 113.33913 61.168727 
L 113.404474 61.233476 
L 113.66585 60.364063 
L 113.861882 56.03749 
L 114.253946 46.584085 
L 114.776698 39.860061 
L 115.038074 37.294169 
L 115.430138 31.274722 
L 115.495482 31.584758 
L 115.756859 36.152651 
L 116.148923 41.068499 
L 116.737019 46.65886 
L 116.933051 46.934686 
L 116.998395 46.804369 
L 117.325115 44.556694 
L 117.390459 44.598477 
L 117.521147 44.296521 
L 118.043899 47.127296 
L 118.370619 51.107016 
L 118.435963 51.285106 
L 118.501307 51.231078 
L 119.154747 48.546517 
L 119.416123 46.235246 
L 119.546812 46.260331 
L 119.742844 47.390865 
L 120.134908 50.581801 
L 120.33094 54.28277 
L 120.788348 65.198977 
L 121.180412 68.250279 
L 121.441788 71.156444 
L 121.572476 71.648369 
L 121.768508 71.526455 
L 121.899196 71.923744 
L 121.96454 71.796131 
L 122.029884 71.87576 
L 122.225916 71.560573 
L 122.356604 71.148958 
L 122.487292 70.148004 
L 123.336765 59.435638 
L 123.598141 53.92772 
L 123.794173 52.40486 
L 124.055549 52.787736 
L 124.316925 54.00458 
L 124.382269 53.911948 
L 124.839677 53.373996 
L 124.905021 53.31303 
L 125.166397 52.732486 
L 125.427773 52.256194 
L 125.754493 52.561518 
L 125.885181 52.332802 
L 125.950525 52.382908 
L 126.081213 53.028396 
L 126.211901 58.518668 
L 126.342589 68.410143 
L 127.192062 78.730089 
L 127.518782 80.357102 
L 127.714814 81.394826 
L 127.910846 81.963103 
L 128.041534 81.931142 
L 128.172222 81.629225 
L 128.368254 80.203704 
L 128.825662 73.127112 
L 129.152382 66.153229 
L 129.60979 51.271782 
L 130.132542 50.190509 
L 130.328574 49.912506 
L 130.655294 49.61947 
L 131.243391 49.320246 
L 131.504767 49.340969 
L 131.635455 49.455103 
L 132.092863 50.004842 
L 132.223551 49.990643 
L 132.484927 49.856637 
L 132.811647 50.145954 
L 133.138367 50.06858 
L 133.399743 49.665256 
L 133.726463 49.961441 
L 133.791807 49.861383 
L 133.922495 49.760124 
L 134.053183 49.808436 
L 134.314559 49.574334 
L 134.445247 49.638589 
L 135.098688 50.381566 
L 135.29472 50.58925 
L 135.686784 51.208135 
L 135.882816 51.390408 
L 136.078848 52.257403 
L 136.144192 52.963232 
L 136.470912 63.369794 
L 136.732288 65.383551 
L 136.92832 65.93024 
L 137.059008 65.879024 
L 137.320384 66.841703 
L 137.516416 69.432453 
L 138.104512 79.815075 
L 138.2352 80.077489 
L 138.56192 76.841916 
L 138.888641 71.900606 
L 139.411393 51.416401 
L 139.607425 51.198947 
L 140.260865 50.586309 
L 141.110337 49.074795 
L 141.371713 49.374154 
L 141.763777 49.049264 
L 142.025153 49.193981 
L 142.286529 49.069068 
L 142.743938 49.514964 
L 143.136002 49.742035 
L 143.462722 48.992058 
L 143.724098 49.762676 
L 144.050818 51.539195 
L 144.116162 51.490954 
L 144.181506 51.650075 
L 144.312194 52.712013 
L 144.377538 52.662267 
L 144.442882 52.27054 
L 144.508226 52.385187 
L 144.57357 52.782015 
L 144.638914 52.758636 
L 145.096322 51.477158 
L 145.423042 50.355671 
L 145.55373 50.274179 
L 145.749762 50.129848 
L 146.076482 50.382176 
L 146.272514 50.25243 
L 146.337858 50.203355 
L 146.599235 50.815655 
L 146.795267 50.533182 
L 146.925955 50.275687 
L 147.383363 50.456844 
L 147.644739 51.40109 
L 148.036803 50.997861 
L 148.102147 51.023488 
L 148.232835 51.493644 
L 148.298179 51.444476 
L 148.494211 51.250124 
L 148.690243 51.285944 
L 148.951619 51.545304 
L 149.343683 50.753747 
L 149.409027 50.790363 
L 149.670403 51.075151 
L 149.735747 51.072481 
L 149.866435 50.424799 
L 149.931779 50.487358 
L 150.127811 50.678355 
L 150.258499 51.146514 
L 150.323844 51.080349 
L 150.58522 51.454766 
L 150.846596 52.069221 
L 150.91194 52.15945 
L 151.107972 51.9913 
L 151.369348 52.192454 
L 151.696068 52.749259 
L 152.414852 53.301268 
L 152.610884 53.05163 
L 152.87226 53.830647 
L 153.264324 54.215184 
L 154.309829 55.953012 
L 155.224645 58.213995 
L 155.420677 58.049954 
L 155.486021 58.31259 
L 155.551365 58.187262 
L 156.270149 59.67245 
L 156.400837 59.652411 
L 156.596869 59.796116 
L 156.727557 59.740977 
L 157.380997 60.703045 
L 157.577029 60.854758 
L 157.707717 61.153174 
L 157.773061 61.109225 
L 157.969094 61.097731 
L 158.034438 60.834668 
L 158.099782 60.851966 
L 158.23047 60.902992 
L 158.361158 60.279355 
L 158.426502 60.559684 
L 158.753222 62.853499 
L 159.014598 64.208449 
L 159.145286 64.597364 
L 159.602694 67.046352 
L 159.733382 69.790253 
L 159.798726 69.492411 
L 159.86407 69.867775 
L 159.994758 72.330179 
L 160.19079 85.687741 
L 160.452166 92.875414 
L 160.648198 94.318811 
L 160.713542 94.332262 
L 161.17095 93.357911 
L 161.759046 89.756824 
L 161.824391 89.521218 
L 161.955079 69.213244 
L 162.020423 69.461938 
L 162.085767 69.534218 
L 162.477831 68.226947 
L 162.608519 68.033991 
L 162.739207 67.836092 
L 163.327303 68.259496 
L 163.457991 68.317045 
L 163.784711 68.839991 
L 164.046087 69.445977 
L 164.634183 70.183528 
L 164.764871 70.225319 
L 165.091591 70.827856 
L 165.222279 71.064454 
L 165.418311 71.21492 
L 165.679687 71.386315 
L 166.006408 71.88339 
L 166.20244 71.948594 
L 166.398472 72.348661 
L 166.725192 72.629703 
L 167.117256 73.553089 
L 167.1826 73.571818 
L 167.443976 73.942731 
L 167.574664 73.958038 
L 168.16276 75.15587 
L 169.14292 76.204037 
L 169.338952 76.092954 
L 170.384457 77.49695 
L 170.580489 77.96625 
L 170.711177 77.944584 
L 170.841865 78.252434 
L 171.299273 81.331003 
L 171.560649 82.407569 
L 171.691337 82.266125 
L 172.279433 80.115413 
L 173.194249 83.775037 
L 173.324937 83.784282 
L 173.52097 84.021687 
L 173.717002 84.049259 
L 174.109066 83.798105 
L 174.435786 84.181005 
L 174.566474 84.222412 
L 175.15457 82.861939 
L 175.350602 82.472718 
L 176.004042 81.676265 
L 176.396106 81.184907 
L 176.592138 81.359805 
L 176.722826 81.055138 
L 176.984202 80.519248 
L 177.245579 80.168798 
L 177.572299 79.664534 
L 177.899019 79.588847 
L 178.095051 79.327922 
L 178.225739 79.160162 
L 178.356427 79.087466 
L 178.552459 78.823418 
L 178.617803 78.919355 
L 178.683147 78.823847 
L 179.075211 78.094457 
L 179.205899 78.198036 
L 179.401931 77.929721 
L 179.467275 77.716365 
L 179.532619 77.822169 
L 179.597963 77.844644 
L 180.120715 76.955441 
L 180.251403 76.956987 
L 180.578123 76.69705 
L 180.839499 76.655598 
L 180.904843 76.866623 
L 180.970187 76.808769 
L 181.296908 76.684946 
L 181.49294 76.78072 
L 181.623628 76.689167 
L 181.754316 76.708647 
L 181.950348 76.680758 
L 182.277068 77.061311 
L 182.79982 79.983339 
L 182.865164 79.947872 
L 183.12654 79.634566 
L 183.387916 80.04403 
L 183.518604 80.423109 
L 183.583948 80.444661 
L 183.77998 80.119127 
L 183.910668 80.054646 
L 184.237388 79.804165 
L 184.302732 79.81603 
L 184.43342 79.944863 
L 184.629452 79.759144 
L 184.694796 79.874281 
L 184.890828 80.530901 
L 185.021517 80.626598 
L 185.152205 80.499826 
L 185.348237 79.887621 
L 185.413581 79.950012 
L 185.609613 80.039924 
L 185.805645 79.864859 
L 186.067021 80.211966 
L 186.132365 80.146746 
L 186.197709 80.153097 
L 186.720461 80.950488 
L 187.112525 80.860491 
L 187.308557 80.775364 
L 187.439245 80.786467 
L 187.569933 80.921899 
L 188.092685 80.783949 
L 188.223373 80.922783 
L 188.876814 82.089592 
L 188.942158 82.091149 
L 189.13819 81.413546 
L 189.399566 81.658254 
L 189.595598 82.048367 
L 189.726286 81.987287 
L 189.856974 82.226349 
L 189.922318 82.187957 
L 189.987662 82.070591 
L 190.053006 82.145058 
L 190.44507 82.922156 
L 190.641102 83.27236 
L 190.967822 83.917316 
L 191.163854 84.127921 
L 191.555918 85.333251 
L 191.686606 85.634939 
L 191.882638 86.157596 
L 191.947982 86.118548 
L 192.993487 89.077231 
L 193.058831 89.016453 
L 193.189519 88.641366 
L 193.254863 88.67467 
L 193.385551 88.422229 
L 193.450895 88.536403 
L 193.646927 88.507784 
L 193.712271 88.422334 
L 193.777615 88.511999 
L 193.908303 88.755049 
L 194.038991 89.138031 
L 194.235023 89.48087 
L 194.365711 89.995545 
L 194.627087 91.50163 
L 194.888463 91.996522 
L 195.215183 92.206174 
L 196.064655 94.210392 
L 196.326031 94.44663 
L 196.652752 94.82243 
L 196.78344 94.916209 
L 197.632912 97.285445 
L 197.7636 97.302369 
L 198.221008 98.26047 
L 198.286352 98.298583 
L 198.809104 99.630514 
L 198.874448 99.585966 
L 199.07048 99.64162 
L 199.593232 101.633979 
L 200.115984 103.101227 
L 200.312016 103.132804 
L 201.096145 105.579307 
L 201.880273 107.171609 
L 202.010961 107.272252 
L 202.206993 107.527653 
L 202.272337 107.598204 
L 202.468369 108.134116 
L 203.056465 109.361771 
L 203.448529 110.394821 
L 204.036625 111.575984 
L 204.101969 111.559357 
L 204.298002 111.825311 
L 204.363346 111.837562 
L 204.624722 112.58452 
L 204.951442 114.012662 
L 205.147474 115.082442 
L 205.343506 114.777008 
L 205.670226 114.915475 
L 205.866258 114.375128 
L 205.931602 114.397624 
L 206.127634 114.454645 
L 206.454354 114.24273 
L 206.846418 114.790793 
L 207.04245 114.65427 
L 207.238482 114.78787 
L 207.434514 114.804726 
L 207.630546 114.927029 
L 207.69589 114.92179 
L 207.891922 115.082356 
L 208.153299 115.452603 
L 208.283987 115.549675 
L 208.414675 115.787024 
L 208.676051 116.279604 
L 208.806739 116.461919 
L 209.002771 116.853889 
L 209.133459 116.836893 
L 209.264147 117.208295 
L 210.244307 120.193814 
L 210.505683 120.449636 
L 210.767059 120.683547 
L 210.897747 120.952831 
L 211.028435 122.133308 
L 211.485843 136.74381 
L 211.812563 141.052792 
L 212.269972 145.248286 
L 212.40066 145.356372 
L 212.466004 145.289972 
L 212.596692 143.856624 
L 212.923412 140.333766 
L 213.0541 139.605732 
L 213.315476 137.062679 
L 213.576852 130.249201 
L 213.903572 147.57705 
L 214.426324 153.762447 
L 214.622356 154.31402 
L 214.949076 153.182794 
L 215.537172 146.807463 
L 216.321301 134.432198 
L 216.386645 134.46753 
L 216.517333 134.594109 
L 216.778709 135.020358 
L 217.170773 136.003801 
L 217.562837 138.377452 
L 218.412309 139.803701 
L 218.869717 140.922553 
L 219.849878 143.556366 
L 220.04591 144.356848 
L 220.241942 145.313156 
L 220.37263 145.065421 
L 220.503318 144.953317 
L 220.634006 144.871893 
L 220.69935 144.746358 
L 221.02607 145.321352 
L 221.091414 145.265174 
L 221.35279 146.001225 
L 221.67951 147.053436 
L 222.398294 149.272123 
L 222.65967 150.173225 
L 222.921046 150.785824 
L 223.509143 154.604518 
L 223.835863 156.172304 
L 223.901207 156.287625 
L 224.227927 155.179572 
L 224.293271 155.236235 
L 224.881367 156.958978 
L 224.946711 157.000397 
L 225.273431 158.273173 
L 225.534807 159.951759 
L 225.926871 162.007457 
L 226.384279 164.039573 
L 226.776343 165.352059 
L 226.972375 166.024032 
L 227.429784 167.776353 
L 227.625816 168.494527 
L 228.01788 169.929474 
L 228.475288 171.275646 
L 228.67132 171.425903 
L 228.802008 171.416696 
L 228.932696 171.421995 
L 229.063384 171.414938 
L 229.128728 171.544322 
L 229.586136 174.363482 
L 230.108888 176.247346 
L 230.435608 176.983435 
L 231.089048 178.228062 
L 231.481113 179.178949 
L 231.677145 179.415844 
L 231.807833 179.3297 
L 232.265241 178.455852 
L 232.461273 178.456897 
L 232.657305 178.080918 
L 232.803051 178.0636 
L 233.195115 179.730439 
L 233.391147 180.124594 
L 233.913899 181.676758 
L 234.044587 181.605437 
L 234.240619 181.409079 
L 234.305963 181.23529 
L 234.371307 181.272175 
L 234.959403 181.856063 
L 235.286123 182.19296 
L 235.416811 182.223463 
L 235.743532 182.686314 
L 236.919724 181.235008 
L 237.115756 181.024117 
L 237.311788 180.903528 
L 238.095916 179.752786 
L 238.291948 179.663969 
L 238.553324 179.19642 
L 238.618668 179.132708 
L 238.880044 178.585442 
L 239.010732 178.301721 
L 239.206764 179.027176 
L 239.402797 179.812817 
L 239.533485 179.834064 
L 240.056237 180.375298 
L 240.382957 181.355991 
L 240.709677 181.310509 
L 240.840365 181.371328 
L 240.971053 181.393777 
L 241.297773 182.667916 
L 241.755181 184.588843 
L 241.820525 184.555237 
L 242.016557 185.360566 
L 242.212589 186.579818 
L 242.343277 186.624507 
L 242.473965 186.219245 
L 243.127405 183.489893 
L 243.323438 183.019096 
L 243.454126 183.090265 
L 243.650158 183.268813 
L 243.715502 183.272433 
L 244.042222 182.568266 
L 244.238254 183.210951 
L 244.434286 183.75276 
L 244.761006 182.980476 
L 244.82635 183.039411 
L 245.610478 186.578839 
L 245.675822 186.566407 
L 246.13323 187.377443 
L 246.329262 187.188538 
L 246.45995 187.4362 
L 246.525294 187.644436 
L 246.590638 187.551735 
L 246.721326 187.43562 
L 246.982702 188.01086 
L 247.113391 187.892051 
L 247.309423 188.118549 
L 247.505455 187.881728 
L 247.701487 187.963275 
L 247.897519 187.96292 
L 247.962863 188.038422 
L 248.224239 186.631924 
L 248.420271 185.286821 
L 248.485615 185.067019 
L 248.812335 181.524015 
L 248.877679 181.706775 
L 249.139055 182.283144 
L 249.269743 181.84112 
L 249.400431 182.230144 
L 249.465775 182.191095 
L 249.531119 182.239147 
L 249.988527 185.438847 
L 250.053871 185.430773 
L 250.249903 186.362572 
L 250.641967 185.526654 
L 250.707311 185.507318 
L 250.837999 185.251476 
L 251.034032 185.678828 
L 251.16472 185.481651 
L 251.295408 184.983664 
L 251.360752 185.01147 
L 251.556784 185.404286 
L 251.687472 185.147435 
L 251.752816 185.193606 
L 251.81816 185.246918 
L 251.883504 185.161389 
L 251.948848 184.976619 
L 252.014192 185.031614 
L 252.14488 185.20103 
L 252.4716 184.446741 
L 252.536944 184.545653 
L 252.732976 185.073029 
L 252.994352 185.116992 
L 253.321072 184.826333 
L 253.647792 183.727646 
L 253.974512 183.215339 
L 254.170544 182.927495 
L 254.235888 183.159724 
L 254.43192 182.807534 
L 254.627952 182.386647 
L 254.823985 182.095797 
L 255.020017 182.18082 
L 255.346737 181.665493 
L 255.738801 180.585408 
L 255.869489 180.443483 
L 256.130865 179.714378 
L 256.261553 179.684579 
L 256.718961 178.659115 
L 256.980337 178.557717 
L 257.241713 178.174175 
L 257.829809 177.872582 
L 257.960497 177.576465 
L 258.025841 177.602635 
L 258.156529 177.575756 
L 258.352561 177.273174 
L 258.548593 177.252393 
L 258.744626 176.970545 
L 258.940658 176.759246 
L 259.13669 176.773573 
L 259.528754 175.985257 
L 259.79013 176.01281 
L 259.986162 175.846931 
L 260.051506 175.880813 
L 260.182194 175.629181 
L 260.247538 175.691142 
L 260.378226 175.620113 
L 261.09701 174.828047 
L 261.162354 174.930151 
L 261.293042 175.02618 
L 261.619762 174.901572 
L 261.946482 174.865858 
L 262.207858 174.766353 
L 262.338546 174.86923 
L 262.534579 174.767695 
L 262.730611 175.063092 
L 263.057331 175.579897 
L 263.384051 176.204251 
L 263.710771 178.460218 
L 263.906803 179.432091 
L 264.102835 178.879111 
L 264.233523 179.362317 
L 265.148339 186.052413 
L 266.651252 218.256364 
L 266.78194 217.895166 
L 267.370036 216.070877 
L 267.566068 215.837882 
L 267.696756 216.120432 
L 267.827444 215.917913 
L 268.023476 216.335834 
L 268.08882 216.26527 
L 268.284852 216.128386 
L 268.350196 216.214372 
L 268.676916 217.92827 
L 268.74226 217.873296 
L 268.807604 217.56535 
L 269.983796 199.001546 
L 270.375861 190.112766 
L 270.833269 183.075925 
L 271.094645 182.207118 
L 271.290677 181.624341 
L 271.552053 180.869794 
L 271.748085 180.849818 
L 272.074805 181.181027 
L 272.270837 181.286838 
L 273.120309 183.311809 
L 273.773749 186.343688 
L 274.231158 190.524023 
L 274.557878 195.591762 
L 274.819254 197.135787 
L 275.015286 197.576466 
L 275.472694 195.925576 
L 275.73407 197.663535 
L 275.799414 197.489454 
L 276.844918 190.368884 
L 277.106294 189.672234 
L 277.36767 189.136612 
L 277.498358 189.112885 
L 277.629046 188.585207 
L 278.021111 186.800906 
L 278.217143 186.147306 
L 278.805239 180.147717 
L 279.654711 173.373851 
L 280.177463 172.568231 
L 280.569527 172.535625 
L 280.896247 172.730564 
L 281.026935 172.724107 
L 282.07244 174.173674 
L 282.333816 174.999723 
L 282.856568 178.196093 
L 283.117944 180.13144 
L 283.510008 182.32776 
L 283.967416 183.24043 
L 284.294136 185.797146 
L 284.424824 185.991795 
L 284.490168 186.121178 
L 284.555512 186.05795 
L 284.816888 185.330596 
L 286.450489 174.658614 
L 286.646521 174.612371 
L 287.038585 173.784906 
L 287.103929 173.840408 
L 287.299961 173.679351 
L 287.757369 173.273545 
L 287.888057 173.321239 
L 288.345465 173.393709 
L 288.476153 173.172031 
L 288.606841 173.560248 
L 289.064249 180.097618 
L 289.129593 180.168713 
L 289.456314 181.790372 
L 289.587002 182.04846 
L 290.04441 181.044175 
L 290.240442 181.53309 
L 290.763194 178.293876 
L 290.959226 176.101994 
L 291.089914 176.506937 
L 291.874042 180.660684 
L 291.939386 180.621405 
L 292.070074 181.035789 
L 292.266106 181.611987 
L 292.396794 181.620926 
L 292.527482 181.579027 
L 292.919546 182.72821 
L 292.984891 182.715383 
L 293.180923 181.869423 
L 293.376955 181.186758 
L 293.572987 180.438899 
L 294.030395 176.525625 
L 294.553147 171.951774 
L 294.749179 171.297408 
L 295.075899 168.443059 
L 295.271931 167.304772 
L 295.729339 166.369316 
L 296.056059 167.419275 
L 296.578811 170.700086 
L 297.101564 173.185465 
L 297.428284 174.899307 
L 297.820348 175.623606 
L 298.01638 175.697127 
L 298.212412 175.466941 
L 298.3431 175.317486 
L 298.408444 175.189384 
L 298.473788 175.254517 
L 298.604476 175.296505 
L 298.865852 175.304287 
L 298.99654 175.376111 
L 299.061884 175.269989 
L 299.127228 175.3183 
L 300.042044 174.899921 
L 300.30342 174.899145 
L 300.695485 174.51255 
L 300.891517 174.606043 
L 301.218237 174.366679 
L 301.610301 174.919497 
L 302.067709 175.455755 
L 302.198397 175.426985 
L 302.525117 175.564518 
L 302.655805 175.468492 
L 303.113213 175.302362 
L 303.243901 175.375425 
L 303.374589 175.366318 
L 303.505277 175.33532 
L 303.766653 175.36795 
L 304.028029 175.198959 
L 304.158717 175.269494 
L 304.289405 175.261944 
L 304.485437 175.387525 
L 304.746814 175.267858 
L 304.812158 175.17753 
L 304.877501 175.228346 
L 305.204222 175.263044 
L 305.33491 175.193033 
L 305.530942 175.177759 
L 305.792318 175.288666 
L 305.98835 175.143832 
L 306.380414 175.03511 
L 306.707134 175.09422 
L 307.164542 175.100577 
L 307.29523 175.196479 
L 307.687294 174.849384 
L 307.752638 174.840276 
L 307.817982 174.680051 
L 307.883326 174.747041 
L 308.144702 175.182494 
L 308.27539 175.338487 
L 308.406079 175.167449 
L 308.471422 175.215369 
L 309.320895 175.010938 
L 309.451583 175.065229 
L 309.843647 174.916931 
L 310.105023 174.999646 
L 310.235711 175.061517 
L 310.366399 175.096489 
L 310.693119 175.296366 
L 310.889151 175.217904 
L 311.150527 175.082321 
L 311.477247 175.155455 
L 311.607935 175.105625 
L 311.738623 175.170539 
L 311.869311 174.950906 
L 311.934655 175.013834 
L 312.65344 174.643793 
L 312.718784 174.704031 
L 312.784127 174.62309 
L 313.045504 174.594122 
L 313.176192 174.362941 
L 313.241536 174.420593 
L 313.6336 174.740606 
L 313.829632 174.710773 
L 314.025664 174.896036 
L 314.352384 175.266401 
L 314.61376 175.12975 
L 315.005824 175.599978 
L 315.071168 175.544539 
L 315.463232 175.449038 
L 315.59392 175.640685 
L 315.855296 175.540496 
L 316.116673 175.476409 
L 316.312705 175.699835 
L 316.443392 175.655821 
L 316.574081 175.613792 
L 316.704769 175.496626 
L 316.770113 175.54234 
L 317.096833 175.241475 
L 317.292865 175.212229 
L 317.619585 175.061713 
L 317.815617 174.674473 
L 318.076993 174.665872 
L 318.338369 174.705309 
L 318.469057 174.640619 
L 318.730433 174.791065 
L 319.057153 174.855105 
L 319.318529 175.09992 
L 319.514561 175.217155 
L 319.775937 175.132861 
L 320.168002 174.985609 
L 320.364034 175.09311 
L 320.494721 175.099702 
L 320.690754 175.269467 
L 321.148162 174.474481 
L 321.344194 174.375883 
L 321.670914 173.617247 
L 321.801602 173.636084 
L 322.062978 173.938313 
L 322.25901 174.081723 
L 322.389698 174.170508 
L 322.520386 174.1563 
L 322.847106 174.221547 
L 323.043138 174.178802 
L 323.173826 174.003055 
L 323.56589 173.549885 
L 323.827267 173.325861 
L 323.89261 173.236313 
L 324.088642 172.335246 
L 324.153986 172.380448 
L 324.415363 172.542623 
L 324.807427 171.290074 
L 325.134147 170.017439 
L 325.264835 170.004026 
L 325.591555 169.506753 
L 325.852931 168.854605 
L 326.114307 169.090366 
L 326.898435 168.573954 
L 327.159811 167.995241 
L 327.486531 166.920795 
L 327.617219 166.956624 
L 327.813251 167.073319 
L 328.401348 165.740709 
L 328.532036 165.253232 
L 328.793412 165.238528 
L 329.054788 166.062441 
L 329.25082 166.294576 
L 329.512196 166.671815 
L 329.773572 166.983255 
L 330.034948 166.94544 
L 330.165636 167.000347 
L 330.361668 167.292888 
L 331.145796 166.547417 
L 331.21114 166.584564 
L 331.407172 166.469288 
L 331.733893 166.388796 
L 331.995269 165.494665 
L 332.060612 165.6607 
L 332.387333 167.579288 
L 332.583365 167.885095 
L 332.910085 167.803697 
L 333.040773 167.785962 
L 333.171461 167.710577 
L 333.302149 167.647923 
L 333.367493 167.656214 
L 333.628869 167.401354 
L 333.759557 167.376109 
L 333.955589 167.182505 
L 334.086277 167.204436 
L 334.609029 167.33082 
L 334.739717 167.27403 
L 334.935749 166.965128 
L 335.327813 166.494415 
L 335.654533 166.4621 
L 335.915909 166.131632 
L 336.438662 165.696064 
L 336.634694 165.487132 
L 336.830726 165.219734 
L 337.484166 164.295188 
L 337.680198 164.249668 
L 338.464326 163.092413 
L 339.248454 162.006382 
L 340.032583 161.07272 
L 340.097927 161.047942 
L 340.293959 160.662715 
L 340.686023 160.037292 
L 341.600839 158.704144 
L 341.927559 157.705554 
L 342.384967 157.23865 
L 342.646343 156.716582 
L 343.169095 155.186131 
L 343.495816 154.82185 
L 343.953224 153.466572 
L 344.2146 152.749787 
L 345.586824 150.510035 
L 345.782856 150.00849 
L 346.370952 148.332765 
L 346.763016 147.726534 
L 346.82836 147.822851 
L 347.024392 147.653887 
L 347.089736 147.681253 
L 347.808521 146.130235 
L 348.135241 145.944624 
L 348.461961 145.735982 
L 348.788681 145.563377 
L 349.050057 145.213128 
L 349.376777 144.900592 
L 349.834185 143.735712 
L 350.356937 142.429328 
L 350.945033 141.556902 
L 351.467786 140.317805 
L 351.794506 139.861622 
L 352.055882 139.315178 
L 352.317258 138.858561 
L 352.447946 138.891786 
L 352.709322 138.410804 
L 352.905354 138.031936 
L 353.232074 137.488086 
L 353.624138 136.915509 
L 353.689482 136.932109 
L 354.277578 135.97804 
L 354.408266 135.823414 
L 354.604298 135.498675 
L 354.80033 135.38037 
L 355.976523 133.133649 
L 356.172555 132.852944 
L 356.433931 132.350593 
L 356.564619 132.352917 
L 356.629963 132.288316 
L 356.695307 132.383348 
L 356.760651 132.334007 
L 357.087371 132.302607 
L 357.218059 132.316351 
L 357.544779 131.447253 
L 358.132875 129.475454 
L 358.394251 129.060535 
L 358.917004 127.727371 
L 359.17838 127.020901 
L 359.570444 126.12542 
L 359.83182 125.474727 
L 360.15854 124.94499 
L 360.354572 124.718815 
L 360.942668 124.085543 
L 361.204044 123.87513 
L 361.596108 123.456627 
L 361.726796 123.492226 
L 362.249548 122.638134 
L 362.510925 122.54952 
L 362.837645 122.148155 
L 362.968333 121.900983 
L 363.360397 120.709026 
L 363.621773 120.514826 
L 363.752461 120.564082 
L 363.948493 120.68118 
L 364.209869 120.552695 
L 364.405901 120.737522 
L 364.536589 120.528714 
L 364.993997 120.040544 
L 365.124685 119.863267 
L 365.190029 119.925717 
L 365.320717 120.030432 
L 365.516749 119.623037 
L 365.843469 119.384194 
L 366.039501 119.34823 
L 366.235533 119.036481 
L 366.431566 118.691004 
L 366.692942 118.371511 
L 366.82363 118.415211 
L 366.954318 118.37812 
L 367.47707 117.780228 
L 367.934478 117.993864 
L 367.999822 117.877489 
L 368.326542 118.26534 
L 368.45723 118.26029 
L 368.653262 118.139797 
L 368.78395 118.030248 
L 369.960142 115.716131 
L 370.09083 115.604842 
L 370.286863 115.187062 
L 370.482895 115.07997 
L 370.940303 114.208751 
L 371.267023 113.839702 
L 371.528399 113.921312 
L 371.985807 113.710299 
L 372.443215 114.103472 
L 372.639247 113.93098 
L 373.161999 113.1421 
L 373.358031 113.1683 
L 373.488719 113.057278 
L 373.880784 113.56555 
L 374.076816 114.046496 
L 374.338192 114.090889 
L 374.403535 114.024887 
L 374.664912 113.306923 
L 375.12232 112.765004 
L 375.44904 112.051639 
L 375.645072 111.712142 
L 375.906448 111.334495 
L 376.10248 111.116271 
L 376.298512 110.973419 
L 376.4292 110.82036 
L 376.625232 110.540621 
L 376.690576 110.561323 
L 376.862756 110.225418 
L 376.862756 110.225418 
" style="fill:none;stroke:#99404f;stroke-linecap:square;stroke-width:1.5;"/>
   </g>
   <g id="patch_3">
    <path d="M 57.280938 228.14 
L 57.280938 10.7 
" style="fill:none;stroke:#000000;stroke-linecap:square;stroke-linejoin:miter;stroke-width:0.8;"/>
   </g>
   <g id="patch_4">
    <path d="M 392.080938 228.14 
L 392.080938 10.7 
" style="fill:none;stroke:#000000;stroke-linecap:square;stroke-linejoin:miter;stroke-width:0.8;"/>
   </g>
   <g id="patch_5">
    <path d="M 57.280937 228.14 
L 392.080938 228.14 
" style="fill:none;stroke:#000000;stroke-linecap:square;stroke-linejoin:miter;stroke-width:0.8;"/>
   </g>
   <g id="patch_6">
    <path d="M 57.280937 10.7 
L 392.080938 10.7 
" style="fill:none;stroke:#000000;stroke-linecap:square;stroke-linejoin:miter;stroke-width:0.8;"/>
   </g>
   <g id="text_19">
    <!-- A -->
    <defs>
     <path d="M 34.1875 63.1875 
L 20.796875 26.90625 
L 47.609375 26.90625 
z
M 28.609375 72.90625 
L 39.796875 72.90625 
L 67.578125 0 
L 57.328125 0 
L 50.6875 18.703125 
L 17.828125 18.703125 
L 11.1875 0 
L 0.78125 0 
z
" id="DejaVuSans-65"/>
    </defs>
    <g transform="translate(65.965923 41.197306)scale(0.12 -0.12)">
     <use xlink:href="#DejaVuSans-65"/>
    </g>
   </g>
   <g id="text_20">
    <!-- A' -->
    <defs>
     <path d="M 17.921875 72.90625 
L 17.921875 45.796875 
L 9.625 45.796875 
L 9.625 72.90625 
z
" id="DejaVuSans-39"/>
    </defs>
    <g transform="translate(375.203893 129.408878)scale(0.12 -0.12)">
     <use xlink:href="#DejaVuSans-65"/>
     <use x="68.408203" xlink:href="#DejaVuSans-39"/>
    </g>
   </g>
  </g>
  <g id="axes_2">
   <g id="patch_7">
    <path d="M 227.920938 85.58 
L 379.120937 85.58 
L 379.120937 27.98 
L 227.920938 27.98 
z
" style="fill:#ffffff;"/>
   </g>
   <g id="matplotlib.axis_3">
    <g id="xtick_9">
     <g id="line2d_18">
      <g>
       <use style="stroke:#000000;stroke-width:0.8;" x="234.793665" xlink:href="#mc01d85dd99" y="85.58"/>
      </g>
     </g>
     <g id="text_21">
      <!-- 0 -->
      <g transform="translate(232.248665 98.65875)scale(0.08 -0.08)">
       <use xlink:href="#DejaVuSans-48"/>
      </g>
     </g>
    </g>
    <g id="xtick_10">
     <g id="line2d_19">
      <g>
       <use style="stroke:#000000;stroke-width:0.8;" x="280.443621" xlink:href="#mc01d85dd99" y="85.58"/>
      </g>
     </g>
     <g id="text_22">
      <!-- 200 -->
      <g transform="translate(272.808621 98.65875)scale(0.08 -0.08)">
       <use xlink:href="#DejaVuSans-50"/>
       <use x="63.623047" xlink:href="#DejaVuSans-48"/>
       <use x="127.246094" xlink:href="#DejaVuSans-48"/>
      </g>
     </g>
    </g>
    <g id="xtick_11">
     <g id="line2d_20">
      <g>
       <use style="stroke:#000000;stroke-width:0.8;" x="326.093578" xlink:href="#mc01d85dd99" y="85.58"/>
      </g>
     </g>
     <g id="text_23">
      <!-- 400 -->
      <g transform="translate(318.458578 98.65875)scale(0.08 -0.08)">
       <use xlink:href="#DejaVuSans-52"/>
       <use x="63.623047" xlink:href="#DejaVuSans-48"/>
       <use x="127.246094" xlink:href="#DejaVuSans-48"/>
      </g>
     </g>
    </g>
    <g id="xtick_12">
     <g id="line2d_21">
      <g>
       <use style="stroke:#000000;stroke-width:0.8;" x="371.743535" xlink:href="#mc01d85dd99" y="85.58"/>
      </g>
     </g>
     <g id="text_24">
      <!-- 600 -->
      <g transform="translate(364.108535 98.65875)scale(0.08 -0.08)">
       <use xlink:href="#DejaVuSans-54"/>
       <use x="63.623047" xlink:href="#DejaVuSans-48"/>
       <use x="127.246094" xlink:href="#DejaVuSans-48"/>
      </g>
     </g>
    </g>
   </g>
   <g id="matplotlib.axis_4">
    <g id="ytick_9">
     <g id="line2d_22">
      <g>
       <use style="stroke:#000000;stroke-width:0.8;" x="227.920938" xlink:href="#m306bf05478" y="78.015779"/>
      </g>
     </g>
     <g id="text_25">
      <!-- −400 -->
      <g transform="translate(198.947188 81.055154)scale(0.08 -0.08)">
       <use xlink:href="#DejaVuSans-8722"/>
       <use x="83.789062" xlink:href="#DejaVuSans-52"/>
       <use x="147.412109" xlink:href="#DejaVuSans-48"/>
       <use x="211.035156" xlink:href="#DejaVuSans-48"/>
      </g>
     </g>
    </g>
    <g id="ytick_10">
     <g id="line2d_23">
      <g>
       <use style="stroke:#000000;stroke-width:0.8;" x="227.920938" xlink:href="#m306bf05478" y="39.686314"/>
      </g>
     </g>
     <g id="text_26">
      <!-- −380 -->
      <g transform="translate(198.947188 42.725689)scale(0.08 -0.08)">
       <use xlink:href="#DejaVuSans-8722"/>
       <use x="83.789062" xlink:href="#DejaVuSans-51"/>
       <use x="147.412109" xlink:href="#DejaVuSans-56"/>
       <use x="211.035156" xlink:href="#DejaVuSans-48"/>
      </g>
     </g>
    </g>
   </g>
   <g id="line2d_24">
    <path clip-path="url(#pba109a016c)" d="M 234.793665 58.20176 
L 235.341565 58.026298 
L 236.026441 57.762014 
L 236.300391 57.584238 
L 236.574341 57.766949 
L 236.779804 57.849097 
L 237.670143 57.718591 
L 238.081068 57.7704 
L 239.930232 57.375425 
L 240.409645 57.52146 
L 241.505446 57.299241 
L 241.710909 57.389133 
L 242.121834 57.320683 
L 242.395785 57.409635 
L 242.875198 57.33302 
L 243.149148 57.23614 
L 243.765536 57.306889 
L 243.970999 57.294765 
L 244.518899 57.483273 
L 244.998312 57.422981 
L 245.34075 57.487677 
L 245.546213 57.520711 
L 245.820163 57.518016 
L 245.957138 57.534592 
L 246.642014 57.801863 
L 246.847476 57.816499 
L 246.984452 57.901766 
L 247.121427 57.880849 
L 247.326889 58.01239 
L 247.737815 57.985417 
L 248.011765 57.690018 
L 249.655467 58.116674 
L 249.792442 58.032229 
L 249.997904 58.158849 
L 250.68278 58.251261 
L 251.847069 58.924707 
L 251.984044 58.936209 
L 252.189507 59.147599 
L 252.600432 59.138685 
L 252.874382 59.050878 
L 253.079845 58.914424 
L 253.559258 58.915225 
L 253.764721 58.926346 
L 254.107158 58.99531 
L 254.381109 58.928185 
L 255.682372 59.717898 
L 255.819348 59.679725 
L 256.230273 60.019703 
L 256.572711 60.113663 
L 256.778174 60.136598 
L 257.257587 59.904189 
L 257.326074 59.936895 
L 257.600024 60.414956 
L 257.873975 60.421393 
L 258.2849 60.37077 
L 258.490363 60.292051 
L 258.695825 60.22783 
L 258.969776 60.370701 
L 259.517676 60.603316 
L 260.271039 60.571505 
L 261.914741 61.222573 
L 262.188691 61.426151 
L 262.736592 61.547952 
L 263.216005 61.580893 
L 263.558443 61.687653 
L 263.763905 61.704506 
L 264.106343 61.887563 
L 264.174831 62.018528 
L 264.243318 62.641248 
L 264.517269 70.192046 
L 265.133657 74.637683 
L 265.339119 75.596337 
L 265.681557 78.729465 
L 266.845846 82.944547 
L 267.393746 82.961818 
L 267.530721 82.870912 
L 267.804672 81.771429 
L 268.763498 76.160531 
L 269.037448 72.788482 
L 269.311398 70.123398 
L 269.516861 68.922323 
L 269.585348 68.956933 
L 269.859299 69.859115 
L 270.201737 70.999101 
L 270.475687 71.489071 
L 270.612662 71.740772 
L 271.160562 73.162826 
L 271.22905 73.097608 
L 271.982413 72.835967 
L 272.119388 72.432509 
L 272.941239 69.566459 
L 273.146702 66.140533 
L 273.48914 64.461479 
L 273.76309 64.257152 
L 273.968553 64.188486 
L 274.174015 64.217552 
L 274.447966 64.225355 
L 274.790403 64.467596 
L 274.927379 65.033891 
L 275.886205 75.777301 
L 276.160155 76.576691 
L 276.434105 76.362478 
L 276.708055 77.121825 
L 277.050493 78.256719 
L 277.255956 78.681265 
L 277.598394 79.368261 
L 277.872344 79.732981 
L 278.077807 79.722018 
L 278.214782 79.745988 
L 278.351757 79.606683 
L 278.83117 78.438598 
L 279.173608 77.505581 
L 279.37907 76.593338 
L 279.789996 74.941702 
L 279.926971 74.584179 
L 280.543359 71.918562 
L 281.022772 69.494534 
L 281.570673 65.499532 
L 282.050085 65.079667 
L 282.529498 64.403756 
L 282.803449 64.237595 
L 283.6253 63.963789 
L 284.310175 63.971678 
L 284.378663 63.91631 
L 284.515638 63.185273 
L 284.926563 60.27158 
L 285.269001 59.871787 
L 285.542951 60.27875 
L 285.953877 62.813111 
L 286.159339 63.166982 
L 287.118165 63.245994 
L 287.871529 63.055606 
L 288.556404 63.030665 
L 289.24128 63.19482 
L 289.926156 63.034363 
L 290.679519 62.963132 
L 291.432882 63.221211 
L 291.843807 63.137308 
L 291.980783 63.175605 
L 293.008096 63.781384 
L 293.419021 63.775685 
L 294.03541 64.074292 
L 294.240872 64.160838 
L 294.377847 64.175154 
L 294.720285 64.478806 
L 294.85726 64.422279 
L 295.199698 64.150836 
L 295.610624 64.515079 
L 296.021549 64.942725 
L 296.637937 70.63985 
L 296.706425 70.793924 
L 296.980375 72.074462 
L 297.3913 73.179909 
L 297.596763 73.375736 
L 297.802226 73.319947 
L 298.007688 73.404323 
L 298.281639 72.978823 
L 298.418614 72.906253 
L 298.829539 72.959573 
L 298.966514 72.741926 
L 299.240465 71.463259 
L 299.993828 67.035676 
L 300.130803 65.819079 
L 300.404753 62.682848 
L 300.678704 62.13601 
L 300.952654 61.972493 
L 301.363579 61.996008 
L 301.842992 62.297766 
L 302.18543 62.796064 
L 302.322405 62.785793 
L 302.45938 62.530597 
L 302.664843 62.184549 
L 302.870306 62.171934 
L 303.349719 62.210536 
L 303.623669 62.360566 
L 303.760644 62.843941 
L 304.240057 66.174898 
L 304.514007 66.841469 
L 304.71947 66.877015 
L 304.924933 66.710318 
L 305.746783 63.442192 
L 306.157709 62.168035 
L 306.774097 61.829876 
L 307.185022 61.613926 
L 307.52746 61.495016 
L 307.732923 61.496176 
L 309.171162 60.549837 
L 309.582087 59.994835 
L 309.719062 59.923535 
L 310.540913 58.79843 
L 310.677888 58.990611 
L 311.088814 59.951386 
L 311.636714 63.465163 
L 311.773689 63.605259 
L 311.910664 63.784875 
L 312.04764 63.542519 
L 312.390077 62.209966 
L 312.801003 59.927951 
L 313.417391 59.719678 
L 313.759829 59.443663 
L 314.239242 59.276625 
L 314.444704 59.243799 
L 314.85563 59.421097 
L 314.924117 59.521385 
L 315.198068 60.621662 
L 315.266555 60.751128 
L 315.335043 60.662693 
L 315.472018 60.64003 
L 315.677481 61.430175 
L 315.882943 62.677423 
L 316.156893 63.26545 
L 316.430844 63.725323 
L 316.636306 63.995801 
L 316.773282 63.993209 
L 316.978744 63.65284 
L 317.115719 63.372294 
L 317.252695 63.158076 
L 317.800595 61.443123 
L 318.21152 61.574947 
L 318.416983 61.160207 
L 318.759421 60.90192 
L 319.444297 60.354411 
L 319.718247 60.410681 
L 320.129172 60.339634 
L 320.266147 60.327097 
L 320.608585 60.120084 
L 320.951023 59.45736 
L 321.567411 58.921476 
L 321.909849 58.702866 
L 322.183799 58.486751 
L 323.895988 56.178074 
L 324.375401 54.979289 
L 324.717839 54.731183 
L 325.197252 53.806751 
L 325.53969 53.550068 
L 325.676665 53.551814 
L 327.046417 54.632127 
L 328.484655 53.980815 
L 328.895581 53.768046 
L 329.443481 53.498787 
L 329.785919 53.396581 
L 330.33382 53.143328 
L 330.88172 53.034558 
L 331.635083 52.925818 
L 332.525422 53.059688 
L 332.799372 53.414996 
L 332.936347 53.349222 
L 333.347273 53.263417 
L 333.621223 53.06564 
L 333.826686 53.041613 
L 335.059462 52.026486 
L 335.196437 51.934312 
L 335.333412 51.913041 
L 336.22375 51.348128 
L 336.840138 51.1997 
L 337.182576 50.875837 
L 337.93594 49.892939 
L 338.141402 49.731735 
L 338.826278 48.952317 
L 339.031741 48.814387 
L 339.374178 48.425988 
L 339.511154 48.289992 
L 341.086368 47.083989 
L 341.497293 46.7506 
L 341.702756 46.488174 
L 341.908218 46.376225 
L 342.456119 45.211572 
L 342.730069 45.257371 
L 343.072507 45.430828 
L 344.168308 44.624728 
L 344.647721 44.291196 
L 344.921671 44.159884 
L 345.538059 43.502699 
L 345.81201 42.804819 
L 346.154448 42.071314 
L 346.565373 41.71054 
L 347.044786 41.494499 
L 349.099413 40.34526 
L 350.195214 39.485644 
L 350.606139 39.195884 
L 351.42799 38.641732 
L 351.907403 38.34571 
L 353.208667 37.12717 
L 353.68808 36.662575 
L 354.167493 36.083932 
L 354.920856 34.353848 
L 355.194806 34.849253 
L 355.742707 35.84069 
L 356.22212 36.130258 
L 356.633045 36.245598 
L 356.838508 36.247694 
L 357.112458 35.989394 
L 357.591871 36.337063 
L 358.276747 35.662358 
L 358.893135 33.862957 
L 358.961622 33.891071 
L 359.235573 33.889094 
L 359.441035 33.639849 
L 359.509523 33.681141 
L 359.851961 34.347236 
L 360.057423 34.414208 
L 360.536836 34.249949 
L 360.879274 34.042224 
L 361.427175 33.985869 
L 361.56415 33.907264 
L 362.043563 33.452562 
L 362.386001 33.445116 
L 362.865414 33.344339 
L 363.344827 33.382206 
L 363.961215 33.108056 
L 364.37214 33.130188 
L 364.577603 33.024898 
L 364.783066 33.175523 
L 365.057016 33.165264 
L 365.947354 33.227405 
L 366.35828 33.269647 
L 366.63223 33.394169 
L 366.90618 33.435127 
L 367.111643 33.495732 
L 367.522568 33.306851 
L 368.070469 33.067274 
L 368.207444 33.008677 
L 368.344419 32.990478 
L 368.755344 32.633131 
L 369.029295 32.516879 
L 370.056608 30.739486 
L 370.330558 30.671255 
L 370.536021 30.659061 
L 370.809971 30.981266 
L 371.083922 31.276989 
L 371.289384 31.410528 
L 371.426359 31.443596 
L 371.70031 31.569848 
L 372.24821 31.420555 
L 372.24821 31.420555 
" style="fill:none;stroke:#99404f;stroke-linecap:square;stroke-width:1.5;"/>
   </g>
   <g id="patch_8">
    <path d="M 227.920938 85.58 
L 227.920938 27.98 
" style="fill:none;stroke:#000000;stroke-linecap:square;stroke-linejoin:miter;stroke-width:0.8;"/>
   </g>
   <g id="patch_9">
    <path d="M 379.120937 85.58 
L 379.120937 27.98 
" style="fill:none;stroke:#000000;stroke-linecap:square;stroke-linejoin:miter;stroke-width:0.8;"/>
   </g>
   <g id="patch_10">
    <path d="M 227.920938 85.58 
L 379.120937 85.58 
" style="fill:none;stroke:#000000;stroke-linecap:square;stroke-linejoin:miter;stroke-width:0.8;"/>
   </g>
   <g id="patch_11">
    <path d="M 227.920938 27.98 
L 379.120937 27.98 
" style="fill:none;stroke:#000000;stroke-linecap:square;stroke-linejoin:miter;stroke-width:0.8;"/>
   </g>
   <g id="text_27">
    <!-- B -->
    <defs>
     <path d="M 19.671875 34.8125 
L 19.671875 8.109375 
L 35.5 8.109375 
Q 43.453125 8.109375 47.28125 11.40625 
Q 51.125 14.703125 51.125 21.484375 
Q 51.125 28.328125 47.28125 31.5625 
Q 43.453125 34.8125 35.5 34.8125 
z
M 19.671875 64.796875 
L 19.671875 42.828125 
L 34.28125 42.828125 
Q 41.5 42.828125 45.03125 45.53125 
Q 48.578125 48.25 48.578125 53.8125 
Q 48.578125 59.328125 45.03125 62.0625 
Q 41.5 64.796875 34.28125 64.796875 
z
M 9.8125 72.90625 
L 35.015625 72.90625 
Q 46.296875 72.90625 52.390625 68.21875 
Q 58.5 63.53125 58.5 54.890625 
Q 58.5 48.1875 55.375 44.234375 
Q 52.25 40.28125 46.1875 39.3125 
Q 53.46875 37.75 57.5 32.78125 
Q 61.53125 27.828125 61.53125 20.40625 
Q 61.53125 10.640625 54.890625 5.3125 
Q 48.25 0 35.984375 0 
L 9.8125 0 
z
" id="DejaVuSans-66"/>
    </defs>
    <g transform="translate(234.793665 70.349886)scale(0.1 -0.1)">
     <use xlink:href="#DejaVuSans-66"/>
    </g>
   </g>
   <g id="text_28">
    <!-- B' -->
    <g transform="translate(367.178539 45.435734)scale(0.1 -0.1)">
     <use xlink:href="#DejaVuSans-66"/>
     <use x="68.603516" xlink:href="#DejaVuSans-39"/>
    </g>
   </g>
   <g id="text_29">
    <!-- Profile B -->
    <defs>
     <path d="M 19.671875 64.796875 
L 19.671875 37.40625 
L 32.078125 37.40625 
Q 38.96875 37.40625 42.71875 40.96875 
Q 46.484375 44.53125 46.484375 51.125 
Q 46.484375 57.671875 42.71875 61.234375 
Q 38.96875 64.796875 32.078125 64.796875 
z
M 9.8125 72.90625 
L 32.078125 72.90625 
Q 44.34375 72.90625 50.609375 67.359375 
Q 56.890625 61.8125 56.890625 51.125 
Q 56.890625 40.328125 50.609375 34.8125 
Q 44.34375 29.296875 32.078125 29.296875 
L 19.671875 29.296875 
L 19.671875 0 
L 9.8125 0 
z
" id="DejaVuSans-80"/>
     <path d="M 41.109375 46.296875 
Q 39.59375 47.171875 37.8125 47.578125 
Q 36.03125 48 33.890625 48 
Q 26.265625 48 22.1875 43.046875 
Q 18.109375 38.09375 18.109375 28.8125 
L 18.109375 0 
L 9.078125 0 
L 9.078125 54.6875 
L 18.109375 54.6875 
L 18.109375 46.1875 
Q 20.953125 51.171875 25.484375 53.578125 
Q 30.03125 56 36.53125 56 
Q 37.453125 56 38.578125 55.875 
Q 39.703125 55.765625 41.0625 55.515625 
z
" id="DejaVuSans-114"/>
     <path d="M 37.109375 75.984375 
L 37.109375 68.5 
L 28.515625 68.5 
Q 23.6875 68.5 21.796875 66.546875 
Q 19.921875 64.59375 19.921875 59.515625 
L 19.921875 54.6875 
L 34.71875 54.6875 
L 34.71875 47.703125 
L 19.921875 47.703125 
L 19.921875 0 
L 10.890625 0 
L 10.890625 47.703125 
L 2.296875 47.703125 
L 2.296875 54.6875 
L 10.890625 54.6875 
L 10.890625 58.5 
Q 10.890625 67.625 15.140625 71.796875 
Q 19.390625 75.984375 28.609375 75.984375 
z
" id="DejaVuSans-102"/>
    </defs>
    <g transform="translate(282.759219 21.98)scale(0.1 -0.1)">
     <use xlink:href="#DejaVuSans-80"/>
     <use x="60.287109" xlink:href="#DejaVuSans-114"/>
     <use x="101.369141" xlink:href="#DejaVuSans-111"/>
     <use x="162.550781" xlink:href="#DejaVuSans-102"/>
     <use x="197.755859" xlink:href="#DejaVuSans-105"/>
     <use x="225.539062" xlink:href="#DejaVuSans-108"/>
     <use x="253.322266" xlink:href="#DejaVuSans-101"/>
     <use x="314.845703" xlink:href="#DejaVuSans-32"/>
     <use x="346.632812" xlink:href="#DejaVuSans-66"/>
    </g>
   </g>
  </g>
  <g id="axes_3">
   <g id="patch_12">
    <path d="M 89.680938 209.42 
L 206.320938 209.42 
L 206.320938 151.82 
L 89.680938 151.82 
z
" style="fill:#ffffff;"/>
   </g>
   <g id="matplotlib.axis_5">
    <g id="xtick_13">
     <g id="line2d_25">
      <g>
       <use style="stroke:#000000;stroke-width:0.8;" x="94.982756" xlink:href="#mc01d85dd99" y="209.42"/>
      </g>
     </g>
     <g id="text_30">
      <!-- 0 -->
      <g transform="translate(92.437756 222.49875)scale(0.08 -0.08)">
       <use xlink:href="#DejaVuSans-48"/>
      </g>
     </g>
    </g>
    <g id="xtick_14">
     <g id="line2d_26">
      <g>
       <use style="stroke:#000000;stroke-width:0.8;" x="138.207587" xlink:href="#mc01d85dd99" y="209.42"/>
      </g>
     </g>
     <g id="text_31">
      <!-- 200 -->
      <g transform="translate(130.572587 222.49875)scale(0.08 -0.08)">
       <use xlink:href="#DejaVuSans-50"/>
       <use x="63.623047" xlink:href="#DejaVuSans-48"/>
       <use x="127.246094" xlink:href="#DejaVuSans-48"/>
      </g>
     </g>
    </g>
    <g id="xtick_15">
     <g id="line2d_27">
      <g>
       <use style="stroke:#000000;stroke-width:0.8;" x="181.432419" xlink:href="#mc01d85dd99" y="209.42"/>
      </g>
     </g>
     <g id="text_32">
      <!-- 400 -->
      <g transform="translate(173.797419 222.49875)scale(0.08 -0.08)">
       <use xlink:href="#DejaVuSans-52"/>
       <use x="63.623047" xlink:href="#DejaVuSans-48"/>
       <use x="127.246094" xlink:href="#DejaVuSans-48"/>
      </g>
     </g>
    </g>
   </g>
   <g id="matplotlib.axis_6">
    <g id="ytick_11">
     <g id="line2d_28">
      <g>
       <use style="stroke:#000000;stroke-width:0.8;" x="89.680938" xlink:href="#m306bf05478" y="202.176787"/>
      </g>
     </g>
     <g id="text_33">
      <!-- −420 -->
      <g transform="translate(60.707188 205.216162)scale(0.08 -0.08)">
       <use xlink:href="#DejaVuSans-8722"/>
       <use x="83.789062" xlink:href="#DejaVuSans-52"/>
       <use x="147.412109" xlink:href="#DejaVuSans-50"/>
       <use x="211.035156" xlink:href="#DejaVuSans-48"/>
      </g>
     </g>
    </g>
    <g id="ytick_12">
     <g id="line2d_29">
      <g>
       <use style="stroke:#000000;stroke-width:0.8;" x="89.680938" xlink:href="#m306bf05478" y="173.361549"/>
      </g>
     </g>
     <g id="text_34">
      <!-- −400 -->
      <g transform="translate(60.707188 176.400924)scale(0.08 -0.08)">
       <use xlink:href="#DejaVuSans-8722"/>
       <use x="83.789062" xlink:href="#DejaVuSans-52"/>
       <use x="147.412109" xlink:href="#DejaVuSans-48"/>
       <use x="211.035156" xlink:href="#DejaVuSans-48"/>
      </g>
     </g>
    </g>
   </g>
   <g id="line2d_30">
    <path clip-path="url(#p558956b644)" d="M 94.982756 154.438182 
L 95.371851 154.542315 
L 95.566399 154.503619 
L 96.409438 154.807754 
L 96.733684 154.82234 
L 96.928232 154.897706 
L 97.12278 155.112884 
L 97.447026 155.251865 
L 97.576724 155.255575 
L 97.836121 155.394698 
L 98.225216 155.494743 
L 99.003407 155.929485 
L 99.911295 156.161135 
L 100.754335 156.361616 
L 100.948883 156.607759 
L 101.273129 156.730984 
L 101.597375 156.75719 
L 102.505264 157.184739 
L 102.699811 157.270743 
L 103.153756 157.430845 
L 107.109558 159.234563 
L 107.498653 159.527933 
L 110.287169 161.073814 
L 111.84355 161.715233 
L 112.427193 161.882114 
L 112.945986 161.981193 
L 113.335081 162.124638 
L 114.048423 162.347224 
L 114.372669 162.665305 
L 115.08601 163.29887 
L 115.604804 163.490032 
L 116.058748 163.980419 
L 116.901788 164.804831 
L 118.004224 165.443885 
L 118.523018 165.870532 
L 120.468494 166.714109 
L 120.663042 166.598487 
L 121.246685 165.439914 
L 121.311534 165.482469 
L 121.63578 166.755012 
L 121.830328 167.054025 
L 122.154574 167.353385 
L 122.932764 167.639052 
L 123.192161 167.68881 
L 123.386709 167.862137 
L 123.646106 168.282842 
L 124.035201 169.025341 
L 124.489145 169.085571 
L 124.94309 168.931493 
L 125.526733 169.19041 
L 125.915828 169.1245 
L 126.304923 169.20217 
L 127.018264 169.984056 
L 127.666756 170.26035 
L 127.861304 170.685511 
L 128.120701 171.33442 
L 128.380098 171.090788 
L 128.574645 170.963084 
L 128.898891 171.221272 
L 129.482534 171.89946 
L 130.001328 172.301451 
L 131.233463 173.867223 
L 131.752256 174.413455 
L 132.141352 175.0959 
L 132.595296 175.363373 
L 132.919542 175.579154 
L 134.281376 177.073979 
L 135.643209 178.549733 
L 136.291701 180.875032 
L 136.551098 181.075279 
L 137.069892 181.537242 
L 137.329288 181.737804 
L 138.172328 183.447986 
L 138.626273 183.927777 
L 139.209915 184.634942 
L 139.339614 184.646825 
L 139.728709 184.269035 
L 139.923257 184.473379 
L 140.312352 184.809899 
L 140.5069 184.812332 
L 140.895995 184.499939 
L 141.349939 184.578098 
L 141.479638 184.437794 
L 141.739034 183.642872 
L 141.868733 183.674474 
L 142.452376 182.378474 
L 142.517225 182.412512 
L 142.711773 182.799613 
L 142.971169 184.212251 
L 143.230566 185.217736 
L 143.74936 186.093551 
L 146.019082 189.452256 
L 146.21363 189.482183 
L 146.408177 189.758369 
L 146.537876 189.666734 
L 146.667574 189.896733 
L 147.05667 191.222385 
L 148.6779 194.006264 
L 149.002146 194.596792 
L 149.391241 195.089388 
L 149.585789 195.297631 
L 150.039733 196.177766 
L 150.363979 196.76321 
L 150.623376 196.955878 
L 151.271868 196.887019 
L 151.790662 197.028671 
L 152.179757 197.153912 
L 152.504003 197.20977 
L 153.865836 198.215583 
L 154.125233 199.232406 
L 154.319781 200.367822 
L 155.097971 202.261627 
L 155.357368 202.343032 
L 155.422217 202.284913 
L 156.200408 200.013942 
L 156.589503 199.860608 
L 156.8489 199.765078 
L 157.237995 200.002418 
L 158.275582 198.103164 
L 158.534979 197.591992 
L 158.729527 197.121463 
L 159.183471 196.081014 
L 159.637416 195.438413 
L 159.767114 195.458544 
L 159.831963 195.539799 
L 160.869551 200.837908 
L 161.064098 201.180219 
L 161.388344 201.826268 
L 161.71259 202.43626 
L 162.166535 204.832496 
L 162.490781 204.9153 
L 162.750178 205.379418 
L 163.074424 206.409194 
L 163.204122 206.480506 
L 163.333821 206.509454 
L 163.658067 206.801818 
L 163.787765 206.75223 
L 164.047162 205.497139 
L 164.695654 202.595458 
L 165.214448 200.609493 
L 165.668392 199.520227 
L 165.798091 199.339109 
L 166.705979 197.782749 
L 167.354472 196.742806 
L 167.678718 196.129079 
L 168.002964 195.676803 
L 169.170249 195.950438 
L 169.624194 196.452088 
L 170.661781 197.275162 
L 171.050876 197.719894 
L 171.245424 197.956686 
L 171.504821 198.077193 
L 171.764218 198.23523 
L 171.958765 198.346316 
L 172.542408 198.747122 
L 172.866654 199.072676 
L 173.1909 199.320723 
L 173.515146 199.509635 
L 174.617583 200.259767 
L 174.81213 200.400886 
L 175.071527 200.480764 
L 175.460623 200.687756 
L 175.720019 200.72532 
L 175.914567 200.687209 
L 176.109115 200.65554 
L 176.692757 200.795205 
L 176.887305 201.15493 
L 177.146702 201.361037 
L 177.600646 201.097525 
L 178.508535 200.348608 
L 179.092178 200.139046 
L 179.546123 199.970681 
L 179.805519 199.783743 
L 180.843107 199.138167 
L 181.232202 198.967007 
L 182.075242 198.395893 
L 182.20494 198.440758 
L 182.464337 198.590516 
L 182.788583 198.393537 
L 182.918281 198.057987 
L 183.307377 197.141692 
L 183.761321 196.527709 
L 184.020718 196.188339 
L 184.280115 195.681214 
L 184.474662 195.360332 
L 184.734059 195.025789 
L 185.51225 194.736195 
L 186.160742 193.187617 
L 186.744385 193.182837 
L 187.068631 192.97928 
L 187.328028 192.534485 
L 187.587424 192.429603 
L 188.300766 192.281487 
L 188.625012 192.308284 
L 189.143805 192.801586 
L 191.283829 192.720571 
L 191.543226 192.686421 
L 191.867472 192.608586 
L 192.126869 192.570922 
L 192.386266 192.578886 
L 192.580813 192.539679 
L 193.229305 192.70084 
L 194.266893 192.63144 
L 194.52629 192.654246 
L 195.434179 193.151669 
L 196.14752 193.166274 
L 196.601464 193.185357 
L 198.54694 193.357181 
L 198.806337 193.290615 
L 199.000885 193.275926 
L 199.779075 193.458898 
L 200.103321 193.44537 
L 200.751814 193.460993 
L 201.019119 193.447913 
L 201.019119 193.447913 
" style="fill:none;stroke:#99404f;stroke-linecap:square;stroke-width:1.5;"/>
   </g>
   <g id="patch_13">
    <path d="M 89.680938 209.42 
L 89.680938 151.82 
" style="fill:none;stroke:#000000;stroke-linecap:square;stroke-linejoin:miter;stroke-width:0.8;"/>
   </g>
   <g id="patch_14">
    <path d="M 206.320938 209.42 
L 206.320938 151.82 
" style="fill:none;stroke:#000000;stroke-linecap:square;stroke-linejoin:miter;stroke-width:0.8;"/>
   </g>
   <g id="patch_15">
    <path d="M 89.680938 209.42 
L 206.320938 209.42 
" style="fill:none;stroke:#000000;stroke-linecap:square;stroke-linejoin:miter;stroke-width:0.8;"/>
   </g>
   <g id="patch_16">
    <path d="M 89.680938 151.82 
L 206.320938 151.82 
" style="fill:none;stroke:#000000;stroke-linecap:square;stroke-linejoin:miter;stroke-width:0.8;"/>
   </g>
   <g id="text_35">
    <!-- C -->
    <defs>
     <path d="M 64.40625 67.28125 
L 64.40625 56.890625 
Q 59.421875 61.53125 53.78125 63.8125 
Q 48.140625 66.109375 41.796875 66.109375 
Q 29.296875 66.109375 22.65625 58.46875 
Q 16.015625 50.828125 16.015625 36.375 
Q 16.015625 21.96875 22.65625 14.328125 
Q 29.296875 6.6875 41.796875 6.6875 
Q 48.140625 6.6875 53.78125 8.984375 
Q 59.421875 11.28125 64.40625 15.921875 
L 64.40625 5.609375 
Q 59.234375 2.09375 53.4375 0.328125 
Q 47.65625 -1.421875 41.21875 -1.421875 
Q 24.65625 -1.421875 15.125 8.703125 
Q 5.609375 18.84375 5.609375 36.375 
Q 5.609375 53.953125 15.125 64.078125 
Q 24.65625 74.21875 41.21875 74.21875 
Q 47.75 74.21875 53.53125 72.484375 
Q 59.328125 70.75 64.40625 67.28125 
z
" id="DejaVuSans-67"/>
    </defs>
    <g transform="translate(94.982756 169.039263)scale(0.1 -0.1)">
     <use xlink:href="#DejaVuSans-67"/>
    </g>
   </g>
   <g id="text_36">
    <!-- C' -->
    <g transform="translate(192.238627 205.058311)scale(0.1 -0.1)">
     <use xlink:href="#DejaVuSans-67"/>
     <use x="69.824219" xlink:href="#DejaVuSans-39"/>
    </g>
   </g>
   <g id="text_37">
    <!-- Profile C -->
    <g transform="translate(127.178281 145.82)scale(0.1 -0.1)">
     <use xlink:href="#DejaVuSans-80"/>
     <use x="60.287109" xlink:href="#DejaVuSans-114"/>
     <use x="101.369141" xlink:href="#DejaVuSans-111"/>
     <use x="162.550781" xlink:href="#DejaVuSans-102"/>
     <use x="197.755859" xlink:href="#DejaVuSans-105"/>
     <use x="225.539062" xlink:href="#DejaVuSans-108"/>
     <use x="253.322266" xlink:href="#DejaVuSans-101"/>
     <use x="314.845703" xlink:href="#DejaVuSans-32"/>
     <use x="346.632812" xlink:href="#DejaVuSans-67"/>
    </g>
   </g>
  </g>
 </g>
 <defs>
  <clipPath id="p0188a3b5dc">
   <rect height="217.44" width="334.8" x="57.280938" y="10.7"/>
  </clipPath>
  <clipPath id="pba109a016c">
   <rect height="57.6" width="151.2" x="227.920938" y="27.98"/>
  </clipPath>
  <clipPath id="p558956b644">
   <rect height="57.6" width="116.64" x="89.680938" y="151.82"/>
  </clipPath>
 </defs>
</svg>
